<svg width="71" height="71" viewBox="0 0 71 71" fill="none" xmlns="http://www.w3.org/2000/svg">
<g clip-path="url(#clip0_58_418)">
<path d="M65.8545 1.11182H17.6614C14.9816 1.11182 12.8024 3.29103 12.8024 5.97088V11.2422H15.1877H35.1246H65.9576V54.164C65.9576 54.2082 65.9134 54.2523 65.8693 54.2523H57.6972V59.023H65.8693C68.5491 59.023 70.7283 56.8438 70.7283 54.164V5.97088C70.7136 3.29103 68.5344 1.11182 65.8545 1.11182ZM47.7435 8.8127C46.271 8.8127 45.0783 7.62002 45.0783 6.14758C45.0783 5.4997 45.3287 4.94017 45.7115 4.48371C46.1974 3.89474 46.9042 3.48245 47.7435 3.48245C48.568 3.48245 49.2748 3.88001 49.7754 4.48371C50.1583 4.94017 50.4086 5.51442 50.4086 6.14758C50.4086 7.63474 49.2159 8.8127 47.7435 8.8127ZM54.8995 8.8127C53.4271 8.8127 52.2344 7.62002 52.2344 6.14758C52.2344 5.4997 52.4995 4.94017 52.8676 4.48371C53.3535 3.89474 54.0603 3.48245 54.8995 3.48245C55.7241 3.48245 56.4309 3.88001 56.9315 4.48371C57.3144 4.94017 57.5647 5.51442 57.5647 6.14758C57.5647 7.63474 56.372 8.8127 54.8995 8.8127ZM62.0556 8.8127C60.5832 8.8127 59.3905 7.62002 59.3905 6.14758C59.3905 5.4997 59.6408 4.94017 60.0237 4.48371C60.5096 3.89474 61.2163 3.48245 62.0556 3.48245C62.8802 3.48245 63.6017 3.88001 64.0876 4.48371C64.4704 4.94017 64.7208 5.51442 64.7208 6.14758C64.7208 7.63474 63.5281 8.8127 62.0556 8.8127Z" fill="black"/>
<path d="M29.2496 67.416V61.7471H5.48434V22.6684C5.48434 21.6377 6.32364 20.7837 7.36907 20.7837H35.1246C36.1554 20.7837 37.0094 21.623 37.0094 22.6684V31.3853H41.7801V22.6684C41.7801 19.002 38.791 16.0129 35.1246 16.0129H7.36907C3.68796 16.0277 0.713623 19.002 0.713623 22.6684V64.1324C0.713623 67.7988 3.68796 70.7879 7.36907 70.7879H30.2361C29.7355 69.9927 29.2496 68.9326 29.2496 67.416ZM21.2395 69.0357C20.4297 69.0357 19.7229 68.6528 19.237 68.0786C18.8394 67.6221 18.5744 67.0331 18.5744 66.3705C18.5744 64.8981 19.7671 63.7054 21.2395 63.7054C22.7119 63.7054 23.9046 64.8981 23.9046 66.3705C23.9046 67.0331 23.6396 67.6074 23.242 68.0786C22.7561 68.6528 22.0493 69.0357 21.2395 69.0357Z" fill="black"/>
<path d="M51.292 34.3743H35.6399C33.7552 34.3743 32.2239 35.9056 32.2239 37.7903V67.4306C32.2239 69.3154 33.7552 70.832 35.6399 70.832H51.292C53.1768 70.832 54.7081 69.3006 54.7081 67.4306V37.7903C54.6934 35.9056 53.162 34.3743 51.292 34.3743ZM35.8166 37.9523H51.1153V64.1913H35.8166V37.9523ZM41.7506 67.3276C41.7506 66.3852 42.5163 65.6195 43.4586 65.6195C44.401 65.6195 45.1667 66.3852 45.1667 67.3276C45.1667 68.2699 44.401 69.0356 43.4586 69.0356C42.5163 69.0356 41.7506 68.2699 41.7506 67.3276Z" fill="black"/>
</g>
<defs>
<clipPath id="clip0_58_418">
<rect width="70" height="70" fill="white" transform="translate(0.713623 0.9646)"/>
</clipPath>
</defs>
</svg>
