<svg width="59" height="60" viewBox="0 0 59 60" fill="none" xmlns="http://www.w3.org/2000/svg">
<path d="M4.33957 29.8832C4.33957 26.2271 5.12855 22.7491 6.49975 19.5644L18.4666 52.6429C17.4131 52.1301 16.3992 51.5435 15.4278 50.8863C14.4549 50.2275 13.5321 49.5043 12.6611 48.7166C11.7885 47.9273 10.9752 47.0812 10.2212 46.1768C9.46715 45.2739 8.78003 44.3203 8.15827 43.3191C7.53652 42.318 6.98621 41.2769 6.51039 40.1974C6.03306 39.1179 5.63325 38.0093 5.30945 36.873C4.98717 35.7367 4.74394 34.5835 4.5828 33.4119C4.42014 32.2418 4.33957 31.0656 4.33957 29.8832ZM46.2829 28.6148C46.2829 30.7677 45.4362 33.2737 44.3857 36.7824L41.8759 45.214L32.8278 18.0903L35.6873 17.7954C37.06 17.6189 36.8836 15.6134 35.5413 15.7025C35.5413 15.7025 31.4839 16.0265 28.8571 16.0265L22.261 15.7025C20.9187 15.6134 20.7727 17.7064 22.0862 17.7954L24.7419 18.0903L28.6534 28.8221L23.1655 45.4198L14.0307 18.0903L16.9206 17.7954C18.2629 17.6189 18.0881 15.6134 16.7443 15.7025C16.7443 15.7025 12.6884 16.0265 10.0615 16.0265L8.45623 15.9973C12.9499 9.12734 20.6268 4.58675 29.3831 4.58675C35.8925 4.58675 41.8455 7.12346 46.2829 11.2203H45.9622C43.5101 11.2203 41.7589 13.3731 41.7589 15.7025C41.7589 17.7954 42.9552 19.5644 44.2109 21.6281C45.1732 23.308 46.2829 25.4608 46.2829 28.6148ZM29.8209 32.0944L37.5267 53.38L37.7015 53.7347C35.1035 54.6775 32.3018 55.1796 29.3831 55.1796C26.931 55.1796 24.5671 54.8249 22.3203 54.1478L29.8209 32.0944ZM51.3619 17.7371C52.3697 19.5982 53.1344 21.5575 53.6528 23.6136C54.1727 25.6712 54.4296 27.7611 54.4265 29.8832C54.4265 39.1993 49.4054 47.3668 41.9626 51.7293L49.6106 29.4118C51.0396 25.814 51.5367 22.9257 51.5367 20.3598L51.3619 17.7371ZM29.3831 0.400879C29.8604 0.400879 30.3377 0.413163 30.8151 0.436196C31.2924 0.460765 31.7682 0.496082 32.244 0.542148C32.7199 0.58975 33.1926 0.649636 33.6654 0.720271C34.1382 0.790906 34.6094 0.873824 35.0777 0.967492C35.5459 1.06116 36.0111 1.16711 36.4747 1.28381C36.9384 1.40205 37.399 1.53103 37.855 1.67077C38.3126 1.8105 38.7656 1.96098 39.2156 2.12375C39.6656 2.28652 40.111 2.46003 40.5534 2.64583C40.9942 2.8301 41.4305 3.02511 41.8622 3.23087C42.294 3.43817 42.7211 3.65468 43.1422 3.88194C43.5633 4.1092 43.9783 4.34721 44.3888 4.59597C44.7977 4.84319 45.2021 5.10116 45.5988 5.36988C45.9956 5.63706 46.3863 5.91499 46.7694 6.20214C47.154 6.49082 47.5295 6.78718 47.8989 7.09275C48.2683 7.39986 48.6301 7.71464 48.9843 8.03864C49.3385 8.36264 49.6836 8.69431 50.021 9.03674C50.3601 9.37763 50.6884 9.7262 51.0092 10.084C51.3299 10.4418 51.6416 10.8072 51.9456 11.1804C52.2481 11.5535 52.5415 11.9328 52.8273 12.3213C53.1116 12.7082 53.3867 13.1028 53.6512 13.5036C53.9173 13.9044 54.1727 14.3128 54.4174 14.7259C54.6637 15.1405 54.8993 15.5597 55.1243 15.985C55.3493 16.4104 55.5636 16.8419 55.7689 17.278C55.9726 17.7141 56.1656 18.1548 56.348 18.6001C56.532 19.0469 56.7038 19.4968 56.8649 19.9513C57.0245 20.4059 57.175 20.8634 57.3134 21.3256C57.4517 21.7863 57.5794 22.2516 57.6964 22.7199C57.812 23.1883 57.9169 23.6581 58.0096 24.1311C58.1023 24.604 58.1844 25.08 58.2544 25.5576C58.3243 26.0351 58.3836 26.5127 58.4307 26.9933C58.4763 27.4739 58.5113 27.9546 58.5356 28.4367C58.5584 28.9189 58.5706 29.401 58.5706 29.8832C58.5706 30.3654 58.5584 30.8475 58.5356 31.3297C58.5113 31.8118 58.4763 32.2924 58.4307 32.7731C58.3836 33.2537 58.3243 33.7313 58.2544 34.2088C58.1844 34.6864 58.1023 35.1624 58.0096 35.6353C57.9169 36.1083 57.812 36.5781 57.6964 37.0465C57.5794 37.5148 57.4517 37.9801 57.3134 38.4407C57.175 38.9029 57.0245 39.3605 56.8649 39.815C56.7038 40.2696 56.532 40.7195 56.348 41.1663C56.1656 41.6116 55.9726 42.0523 55.7689 42.4884C55.5636 42.9245 55.3493 43.356 55.1243 43.7813C54.8993 44.2067 54.6637 44.6259 54.4174 45.0405C54.1727 45.4535 53.9173 45.862 53.6512 46.2628C53.3867 46.6635 53.1116 47.0582 52.8273 47.4451C52.5415 47.8336 52.2481 48.2129 51.9456 48.586C51.6416 48.9592 51.3299 49.3246 51.0092 49.6824C50.6884 50.0402 50.3601 50.3888 50.021 50.7296C49.6836 51.0721 49.3385 51.4037 48.9843 51.7277C48.6301 52.0517 48.2683 52.3665 47.8989 52.6736C47.5295 52.9792 47.154 53.2756 46.7694 53.5642C46.3863 53.8514 45.9956 54.1293 45.5988 54.3965C45.2021 54.6652 44.7977 54.9232 44.3888 55.1704C43.9783 55.4192 43.5633 55.6572 43.1422 55.8844C42.7211 56.1117 42.294 56.3282 41.8622 56.5355C41.4305 56.7413 40.9942 56.9363 40.5534 57.1206C40.111 57.3064 39.6656 57.4799 39.2156 57.6426C38.7656 57.8039 38.3126 57.9559 37.855 58.0956C37.399 58.2354 36.9384 58.3643 36.4747 58.4826C36.0111 58.5993 35.5459 58.7052 35.0777 58.7989C34.6094 58.8926 34.1382 58.9755 33.6654 59.0461C33.1926 59.1167 32.7199 59.1766 32.244 59.2242C31.7682 59.2703 31.2924 59.3056 30.8151 59.3302C30.3377 59.3532 29.8604 59.3655 29.3831 59.3655C28.9057 59.3655 28.4284 59.3532 27.951 59.3302C27.4737 59.3056 26.9979 59.2703 26.5221 59.2242C26.0463 59.1766 25.5735 59.1167 25.1007 59.0461C24.6279 58.9755 24.1567 58.8926 23.6885 58.7989C23.2202 58.7052 22.7551 58.5993 22.2914 58.4826C21.8277 58.3643 21.3671 58.2354 20.9111 58.0956C20.4535 57.9559 20.0005 57.8039 19.5505 57.6426C19.1005 57.4799 18.6551 57.3064 18.2128 57.1206C17.7719 56.9363 17.3356 56.7413 16.9039 56.5355C16.4721 56.3282 16.045 56.1117 15.6239 55.8844C15.2028 55.6572 14.7878 55.4192 14.3773 55.1704C13.9684 54.9232 13.564 54.6652 13.1673 54.3965C12.7705 54.1293 12.3798 53.8514 11.9967 53.5642C11.6121 53.2756 11.2366 52.9792 10.8672 52.6736C10.4978 52.3665 10.136 52.0517 9.78183 51.7277C9.42762 51.4037 9.08254 51.0721 8.74506 50.7296C8.40606 50.3888 8.0777 50.0402 7.75694 49.6824C7.43618 49.3246 7.12455 48.9592 6.82051 48.586C6.51799 48.2129 6.2246 47.8336 5.93881 47.4451C5.65453 47.0582 5.37938 46.6635 5.11487 46.2628C4.84883 45.862 4.59344 45.4535 4.34869 45.0405C4.10242 44.6259 3.8668 44.2067 3.64181 43.7813C3.41682 43.356 3.20248 42.9245 2.99725 42.4884C2.79355 42.0523 2.60048 41.6116 2.41806 41.1663C2.23412 40.7195 2.06234 40.2696 1.9012 39.815C1.74006 39.3605 1.59108 38.9029 1.45275 38.4407C1.31441 37.9801 1.18672 37.5148 1.06966 37.0465C0.954128 36.5781 0.849235 36.1083 0.756504 35.6353C0.663773 35.1624 0.581683 34.6864 0.511755 34.2088C0.441826 33.7313 0.382539 33.2537 0.335413 32.7731C0.289808 32.2924 0.254844 31.8118 0.230521 31.3297C0.207718 30.8475 0.195557 30.3654 0.195557 29.8832C0.195557 29.401 0.207718 28.9189 0.230521 28.4367C0.254844 27.9546 0.289808 27.4739 0.335413 26.9933C0.382539 26.5127 0.441826 26.0351 0.511755 25.5576C0.581683 25.08 0.663773 24.604 0.756504 24.1311C0.849235 23.6581 0.954128 23.1883 1.06966 22.7199C1.18672 22.2516 1.31441 21.7863 1.45275 21.3256C1.59108 20.8634 1.74006 20.4059 1.9012 19.9513C2.06234 19.4968 2.23412 19.0469 2.41806 18.6001C2.60048 18.1548 2.79355 17.7141 2.99725 17.278C3.20248 16.8419 3.41682 16.4104 3.64181 15.985C3.8668 15.5597 4.10242 15.1405 4.34869 14.7259C4.59344 14.3128 4.84883 13.9044 5.11487 13.5036C5.37938 13.1028 5.65453 12.7082 5.93881 12.3213C6.2246 11.9328 6.51799 11.5535 6.82051 11.1804C7.12455 10.8072 7.43618 10.4418 7.75694 10.084C8.0777 9.7262 8.40606 9.37763 8.74506 9.03674C9.08254 8.69431 9.42762 8.36264 9.78183 8.03864C10.136 7.71464 10.4978 7.39986 10.8672 7.09275C11.2366 6.78718 11.6121 6.49082 11.9967 6.20214C12.3798 5.91499 12.7705 5.63706 13.1673 5.36988C13.564 5.10116 13.9684 4.84319 14.3773 4.59597C14.7878 4.34721 15.2028 4.1092 15.6239 3.88194C16.045 3.65468 16.4721 3.43817 16.9039 3.23087C17.3356 3.02511 17.7719 2.8301 18.2128 2.64583C18.6551 2.46003 19.1005 2.28652 19.5505 2.12375C20.0005 1.96098 20.4535 1.8105 20.9111 1.67077C21.3671 1.53103 21.8277 1.40205 22.2914 1.28381C22.7551 1.16711 23.2202 1.06116 23.6885 0.967492C24.1567 0.873824 24.6279 0.790906 25.1007 0.720271C25.5735 0.649636 26.0463 0.58975 26.5221 0.542148C26.9979 0.496082 27.4737 0.460765 27.951 0.436196C28.4284 0.413163 28.9057 0.400879 29.3831 0.400879ZM29.3831 58.0096C44.7354 58.0096 57.2282 45.3906 57.2282 29.8832C57.2282 14.3758 44.7354 1.75676 29.3831 1.75676C14.0307 1.75676 1.53788 14.3758 1.53788 29.8832C1.53788 45.3906 14.0307 58.0096 29.3831 58.0096Z" fill="#0073AA"/>
</svg>
