<svg xmlns="http://www.w3.org/2000/svg" xmlns:xlink="http://www.w3.org/1999/xlink" width="500" zoomAndPan="magnify" viewBox="0 0 375 374.999991" height="500" preserveAspectRatio="xMidYMid meet" version="1.0"><defs><clipPath id="eb2e3d5b79"><path d="M 0 0 L 374.996094 0 L 374.996094 374.996094 L 0 374.996094 Z M 0 0 " clip-rule="nonzero"/></clipPath><clipPath id="21ee0e94e7"><path d="M 111 0 L 374.996094 0 L 374.996094 263.480469 L 111 263.480469 Z M 111 0 " clip-rule="nonzero"/></clipPath></defs><g clip-path="url(#eb2e3d5b79)"><path fill="#ffffff" d="M 330.5 316.019531 C 330.5 323.988281 324.011719 330.5 316.019531 330.5 L 58.976562 330.5 C 51.007812 330.5 44.519531 323.988281 44.519531 316.019531 L 44.519531 58.976562 C 44.519531 51.007812 51.007812 44.519531 58.976562 44.519531 L 205.867188 44.519531 L 205.867188 0 L 58.976562 0 C 26.664062 0 0.335938 26.113281 0 58.355469 L 0 316.019531 C 0 348.308594 26.066406 374.613281 58.257812 374.996094 L 316.019531 374.996094 C 348.402344 374.996094 374.78125 348.761719 374.996094 316.449219 L 374.996094 169.128906 L 330.5 169.128906 L 330.5 316.019531 " fill-opacity="1" fill-rule="nonzero"/></g><g clip-path="url(#21ee0e94e7)"><path fill="#ffffff" d="M 242.585938 0 L 242.585938 44.519531 L 299.023438 44.519531 L 111.683594 231.863281 L 143.15625 263.3125 L 330.5 75.996094 L 330.5 132.410156 L 374.996094 132.410156 L 374.996094 0 L 242.585938 0 " fill-opacity="1" fill-rule="nonzero"/></g></svg>