<svg xmlns="http://www.w3.org/2000/svg" xmlns:xlink="http://www.w3.org/1999/xlink" width="500" zoomAndPan="magnify" viewBox="0 0 375 374.999991" height="500" preserveAspectRatio="xMidYMid meet" version="1.0"><defs><clipPath id="45d86c3049"><path d="M 21.605469 131.066406 L 56.050781 131.066406 L 56.050781 165.507812 L 21.605469 165.507812 Z M 21.605469 131.066406 " clip-rule="nonzero"/></clipPath><clipPath id="93858bc2dd"><path d="M 21.605469 170.253906 L 56.050781 170.253906 L 56.050781 204.695312 L 21.605469 204.695312 Z M 21.605469 170.253906 " clip-rule="nonzero"/></clipPath><clipPath id="e1469f153a"><path d="M 21.605469 209.445312 L 56.050781 209.445312 L 56.050781 243.886719 L 21.605469 243.886719 Z M 21.605469 209.445312 " clip-rule="nonzero"/></clipPath><clipPath id="88d930c68a"><path d="M 21.605469 248.632812 L 56.050781 248.632812 L 56.050781 283.078125 L 21.605469 283.078125 Z M 21.605469 248.632812 " clip-rule="nonzero"/></clipPath><clipPath id="ad3b19db85"><path d="M 60.796875 91.875 L 95.238281 91.875 L 95.238281 126.316406 L 60.796875 126.316406 Z M 60.796875 91.875 " clip-rule="nonzero"/></clipPath><clipPath id="b28ce3b028"><path d="M 60.796875 209.445312 L 95.238281 209.445312 L 95.238281 243.886719 L 60.796875 243.886719 Z M 60.796875 209.445312 " clip-rule="nonzero"/></clipPath><clipPath id="f127f9dfe2"><path d="M 99.984375 91.875 L 134.429688 91.875 L 134.429688 126.316406 L 99.984375 126.316406 Z M 99.984375 91.875 " clip-rule="nonzero"/></clipPath><clipPath id="11bf0caadf"><path d="M 99.984375 209.445312 L 134.429688 209.445312 L 134.429688 243.886719 L 99.984375 243.886719 Z M 99.984375 209.445312 " clip-rule="nonzero"/></clipPath><clipPath id="ef90c9db30"><path d="M 139.175781 131.066406 L 173.617188 131.066406 L 173.617188 165.507812 L 139.175781 165.507812 Z M 139.175781 131.066406 " clip-rule="nonzero"/></clipPath><clipPath id="13d8f8247a"><path d="M 139.175781 170.253906 L 173.617188 170.253906 L 173.617188 204.695312 L 139.175781 204.695312 Z M 139.175781 170.253906 " clip-rule="nonzero"/></clipPath><clipPath id="a35928af3e"><path d="M 139.175781 209.445312 L 173.617188 209.445312 L 173.617188 243.886719 L 139.175781 243.886719 Z M 139.175781 209.445312 " clip-rule="nonzero"/></clipPath><clipPath id="73663a1e39"><path d="M 139.175781 248.632812 L 173.617188 248.632812 L 173.617188 283.078125 L 139.175781 283.078125 Z M 139.175781 248.632812 " clip-rule="nonzero"/></clipPath><clipPath id="0842a648ca"><path d="M 201.371094 91.875 L 235.816406 91.875 L 235.816406 126.316406 L 201.371094 126.316406 Z M 201.371094 91.875 " clip-rule="nonzero"/></clipPath><clipPath id="60b9d67c78"><path d="M 201.371094 131.066406 L 235.816406 131.066406 L 235.816406 165.507812 L 201.371094 165.507812 Z M 201.371094 131.066406 " clip-rule="nonzero"/></clipPath><clipPath id="025291e22e"><path d="M 201.371094 170.253906 L 235.816406 170.253906 L 235.816406 204.695312 L 201.371094 204.695312 Z M 201.371094 170.253906 " clip-rule="nonzero"/></clipPath><clipPath id="e5732c11ea"><path d="M 201.371094 209.445312 L 235.816406 209.445312 L 235.816406 243.886719 L 201.371094 243.886719 Z M 201.371094 209.445312 " clip-rule="nonzero"/></clipPath><clipPath id="db4896cd29"><path d="M 201.371094 248.632812 L 235.816406 248.632812 L 235.816406 283.078125 L 201.371094 283.078125 Z M 201.371094 248.632812 " clip-rule="nonzero"/></clipPath><clipPath id="cdedf8c505"><path d="M 240.5625 91.875 L 275.003906 91.875 L 275.003906 126.316406 L 240.5625 126.316406 Z M 240.5625 91.875 " clip-rule="nonzero"/></clipPath><clipPath id="64094e27be"><path d="M 240.5625 170.253906 L 275.003906 170.253906 L 275.003906 204.695312 L 240.5625 204.695312 Z M 240.5625 170.253906 " clip-rule="nonzero"/></clipPath><clipPath id="89d3029a10"><path d="M 279.753906 91.875 L 314.195312 91.875 L 314.195312 126.316406 L 279.753906 126.316406 Z M 279.753906 91.875 " clip-rule="nonzero"/></clipPath><clipPath id="15b0bf2aaa"><path d="M 279.753906 170.253906 L 314.195312 170.253906 L 314.195312 204.695312 L 279.753906 204.695312 Z M 279.753906 170.253906 " clip-rule="nonzero"/></clipPath><clipPath id="29cfb2b6a4"><path d="M 318.941406 131.066406 L 353.382812 131.066406 L 353.382812 165.507812 L 318.941406 165.507812 Z M 318.941406 131.066406 " clip-rule="nonzero"/></clipPath></defs><g clip-path="url(#45d86c3049)"><path fill="#000000" d="M 21.605469 91.875 L 173.628906 91.875 L 173.628906 283.125 L 21.605469 283.125 Z M 21.605469 91.875 " fill-opacity="1" fill-rule="nonzero"/></g><g clip-path="url(#93858bc2dd)"><path fill="#000000" d="M 21.605469 91.875 L 173.628906 91.875 L 173.628906 283.125 L 21.605469 283.125 Z M 21.605469 91.875 " fill-opacity="1" fill-rule="nonzero"/></g><g clip-path="url(#e1469f153a)"><path fill="#000000" d="M 21.605469 91.875 L 173.628906 91.875 L 173.628906 283.125 L 21.605469 283.125 Z M 21.605469 91.875 " fill-opacity="1" fill-rule="nonzero"/></g><g clip-path="url(#88d930c68a)"><path fill="#000000" d="M 21.605469 91.875 L 173.628906 91.875 L 173.628906 283.125 L 21.605469 283.125 Z M 21.605469 91.875 " fill-opacity="1" fill-rule="nonzero"/></g><g clip-path="url(#ad3b19db85)"><path fill="#000000" d="M 21.605469 91.875 L 173.628906 91.875 L 173.628906 283.125 L 21.605469 283.125 Z M 21.605469 91.875 " fill-opacity="1" fill-rule="nonzero"/></g><g clip-path="url(#b28ce3b028)"><path fill="#000000" d="M 21.605469 91.875 L 173.628906 91.875 L 173.628906 283.125 L 21.605469 283.125 Z M 21.605469 91.875 " fill-opacity="1" fill-rule="nonzero"/></g><g clip-path="url(#f127f9dfe2)"><path fill="#000000" d="M 21.605469 91.875 L 173.628906 91.875 L 173.628906 283.125 L 21.605469 283.125 Z M 21.605469 91.875 " fill-opacity="1" fill-rule="nonzero"/></g><g clip-path="url(#11bf0caadf)"><path fill="#000000" d="M 21.605469 91.875 L 173.628906 91.875 L 173.628906 283.125 L 21.605469 283.125 Z M 21.605469 91.875 " fill-opacity="1" fill-rule="nonzero"/></g><g clip-path="url(#ef90c9db30)"><path fill="#000000" d="M 21.605469 91.875 L 173.628906 91.875 L 173.628906 283.125 L 21.605469 283.125 Z M 21.605469 91.875 " fill-opacity="1" fill-rule="nonzero"/></g><g clip-path="url(#13d8f8247a)"><path fill="#000000" d="M 21.605469 91.875 L 173.628906 91.875 L 173.628906 283.125 L 21.605469 283.125 Z M 21.605469 91.875 " fill-opacity="1" fill-rule="nonzero"/></g><g clip-path="url(#a35928af3e)"><path fill="#000000" d="M 21.605469 91.875 L 173.628906 91.875 L 173.628906 283.125 L 21.605469 283.125 Z M 21.605469 91.875 " fill-opacity="1" fill-rule="nonzero"/></g><g clip-path="url(#73663a1e39)"><path fill="#000000" d="M 21.605469 91.875 L 173.628906 91.875 L 173.628906 283.125 L 21.605469 283.125 Z M 21.605469 91.875 " fill-opacity="1" fill-rule="nonzero"/></g><g clip-path="url(#0842a648ca)"><path fill="#000000" d="M 201.371094 91.875 L 353.394531 91.875 L 353.394531 283.125 L 201.371094 283.125 Z M 201.371094 91.875 " fill-opacity="1" fill-rule="nonzero"/></g><g clip-path="url(#60b9d67c78)"><path fill="#000000" d="M 201.371094 91.875 L 353.394531 91.875 L 353.394531 283.125 L 201.371094 283.125 Z M 201.371094 91.875 " fill-opacity="1" fill-rule="nonzero"/></g><g clip-path="url(#025291e22e)"><path fill="#000000" d="M 201.371094 91.875 L 353.394531 91.875 L 353.394531 283.125 L 201.371094 283.125 Z M 201.371094 91.875 " fill-opacity="1" fill-rule="nonzero"/></g><g clip-path="url(#e5732c11ea)"><path fill="#000000" d="M 201.371094 91.875 L 353.394531 91.875 L 353.394531 283.125 L 201.371094 283.125 Z M 201.371094 91.875 " fill-opacity="1" fill-rule="nonzero"/></g><g clip-path="url(#db4896cd29)"><path fill="#000000" d="M 201.371094 91.875 L 353.394531 91.875 L 353.394531 283.125 L 201.371094 283.125 Z M 201.371094 91.875 " fill-opacity="1" fill-rule="nonzero"/></g><g clip-path="url(#cdedf8c505)"><path fill="#000000" d="M 201.371094 91.875 L 353.394531 91.875 L 353.394531 283.125 L 201.371094 283.125 Z M 201.371094 91.875 " fill-opacity="1" fill-rule="nonzero"/></g><g clip-path="url(#64094e27be)"><path fill="#000000" d="M 201.371094 91.875 L 353.394531 91.875 L 353.394531 283.125 L 201.371094 283.125 Z M 201.371094 91.875 " fill-opacity="1" fill-rule="nonzero"/></g><g clip-path="url(#89d3029a10)"><path fill="#000000" d="M 201.371094 91.875 L 353.394531 91.875 L 353.394531 283.125 L 201.371094 283.125 Z M 201.371094 91.875 " fill-opacity="1" fill-rule="nonzero"/></g><g clip-path="url(#15b0bf2aaa)"><path fill="#000000" d="M 201.371094 91.875 L 353.394531 91.875 L 353.394531 283.125 L 201.371094 283.125 Z M 201.371094 91.875 " fill-opacity="1" fill-rule="nonzero"/></g><g clip-path="url(#29cfb2b6a4)"><path fill="#000000" d="M 201.371094 91.875 L 353.394531 91.875 L 353.394531 283.125 L 201.371094 283.125 Z M 201.371094 91.875 " fill-opacity="1" fill-rule="nonzero"/></g></svg>