<svg xmlns="http://www.w3.org/2000/svg" xmlns:xlink="http://www.w3.org/1999/xlink" width="500" zoomAndPan="magnify" viewBox="0 0 375 374.999991" height="500" preserveAspectRatio="xMidYMid meet" version="1.0"><path fill="#000000" d="M 98.316406 148.320312 C 98.316406 147.417969 99 146.667969 99.898438 146.589844 C 102.433594 146.371094 105.085938 146.265625 107.851562 146.265625 C 125.484375 146.265625 140.5625 152.527344 153.085938 165.046875 C 165.609375 177.570312 171.871094 192.652344 171.871094 210.285156 C 171.871094 211.453125 171.84375 212.613281 171.789062 213.761719 L 171.789062 220.84375 C 171.789062 228.105469 174.34375 234.292969 179.457031 239.40625 C 184.570312 244.519531 190.757812 247.074219 198.019531 247.074219 C 205.28125 247.074219 211.46875 244.519531 216.578125 239.40625 C 221.691406 234.292969 224.246094 228.105469 224.246094 220.84375 L 224.246094 159.824219 C 224.246094 156.121094 225.582031 152.933594 228.25 150.265625 C 230.917969 147.597656 234.105469 146.265625 237.808594 146.265625 L 238.03125 146.265625 C 241.808594 146.265625 244.960938 147.597656 247.480469 150.265625 C 250.144531 152.933594 251.480469 156.121094 251.480469 159.824219 L 251.480469 220.84375 C 251.480469 228.105469 254.035156 234.292969 259.148438 239.40625 C 264.261719 244.519531 270.449219 247.074219 277.710938 247.074219 C 285.046875 247.074219 291.269531 244.519531 296.382812 239.40625 C 301.496094 234.292969 304.050781 228.105469 304.050781 220.84375 L 304.050781 159.824219 C 304.050781 156.121094 305.386719 152.933594 308.054688 150.265625 C 310.570312 147.597656 313.722656 146.265625 317.5 146.265625 L 317.722656 146.265625 C 321.429688 146.265625 324.613281 147.597656 327.28125 150.265625 C 329.875 152.933594 331.171875 156.121094 331.171875 159.824219 L 331.171875 220.84375 C 331.171875 235.589844 325.949219 248.1875 315.5 258.632812 C 305.054688 269.082031 292.457031 274.304688 277.710938 274.304688 C 260.074219 274.304688 246.8125 268.453125 237.917969 256.746094 C 228.953125 268.453125 215.652344 274.304688 198.019531 274.304688 C 183.273438 274.304688 170.675781 269.082031 160.230469 258.632812 C 158.457031 256.863281 156.835938 255.03125 155.367188 253.136719 C 154.632812 253.941406 153.871094 254.738281 153.085938 255.519531 C 140.5625 268.042969 125.484375 274.304688 107.851562 274.304688 C 90.214844 274.304688 75.171875 268.082031 62.722656 255.632812 C 50.199219 243.257812 43.902344 228.253906 43.828125 210.621094 L 43.828125 114.144531 C 43.828125 110.4375 45.164062 107.25 47.828125 104.585938 C 50.496094 101.992188 53.648438 100.695312 57.277344 100.695312 L 57.613281 100.695312 C 61.242188 100.695312 64.390625 101.992188 67.058594 104.585938 C 69.726562 107.25 71.058594 110.4375 71.058594 114.144531 L 71.058594 157.378906 C 71.066406 157.375 71.070312 157.371094 71.078125 157.363281 L 71.078125 209.363281 C 71.066406 209.777344 71.058594 210.199219 71.058594 210.621094 C 71.058594 220.769531 74.617188 229.441406 81.730469 236.625 C 88.917969 243.816406 97.625 247.410156 107.851562 247.410156 C 118 247.410156 126.671875 243.816406 133.859375 236.625 C 140.414062 230.070312 143.980469 222.277344 144.554688 213.253906 L 144.554688 207.96875 C 143.980469 198.878906 140.414062 191.058594 133.859375 184.5 C 126.671875 177.3125 118 173.71875 107.851562 173.71875 C 105.179688 173.71875 102.613281 173.964844 100.152344 174.453125 C 99.703125 174.546875 99.234375 174.433594 98.878906 174.144531 C 98.523438 173.851562 98.316406 173.417969 98.316406 172.960938 C 98.316406 167.714844 98.316406 153.148438 98.316406 148.320312 Z M 98.316406 148.320312 " fill-opacity="1" fill-rule="evenodd"/></svg>