<svg xmlns="http://www.w3.org/2000/svg" xmlns:xlink="http://www.w3.org/1999/xlink" width="500" zoomAndPan="magnify" viewBox="0 0 375 374.999991" height="500" preserveAspectRatio="xMidYMid meet" version="1.0"><path stroke-linecap="butt" transform="matrix(0.347222, 0, 0, 0.347222, -54.687491, -54.687496)" fill="none" stroke-linejoin="miter" d="M 142.098738 1281.060106 C 144.371238 1282.252606 145.878738 1282.882606 146.598738 1282.950106 C 159.828739 1284.187607 171.91124 1283.883857 186.434992 1284.176357 C 207.989994 1284.626357 237.228746 1284.367607 266.422499 1284.367607 C 467.561268 1284.367607 668.700036 1284.367607 869.838805 1284.367607 C 870.097555 1284.356357 870.311305 1284.457607 870.480055 1284.648857 C 870.761305 1284.952607 871.042555 1284.963857 871.323805 1284.705107 C 871.571305 1284.468857 871.863805 1284.345107 872.201305 1284.345107 C 913.297559 1284.367607 954.393813 1284.390107 995.490067 1284.401357 C 1003.263817 1284.401357 1010.711318 1284.345107 1017.843819 1284.232607 C 1024.706319 1284.345107 1031.94007 1284.401357 1039.567571 1284.390107 C 1084.185075 1284.356357 1128.813829 1284.266357 1173.431333 1284.142607 C 1176.468834 1284.131357 1179.495084 1284.210107 1182.521334 1284.378857 C 1187.077585 1284.626357 1192.893835 1284.682607 1197.495086 1284.322607 C 1198.946336 1284.210107 1200.397586 1284.198857 1201.848836 1284.300107 C 1206.270086 1284.570107 1210.545087 1283.940107 1214.898837 1284.603857 C 1215.798837 1284.750107 1216.642587 1284.626357 1217.418837 1284.232607 C 1217.778837 1284.041357 1218.172587 1283.962607 1218.588837 1283.962607 C 1232.685089 1283.962607 1248.14259 1285.143857 1261.957592 1282.162606 C 1267.425092 1280.981356 1268.178842 1273.218856 1268.178842 1268.775105 C 1268.291342 912.768822 1268.336342 556.751289 1268.336342 200.745006 C 1268.336342 200.711256 1268.448842 195.086255 1268.662592 183.870004 C 1268.842592 174.588754 1268.437592 165.318753 1267.447592 156.071252 C 1267.166342 153.360002 1265.883842 152.471252 1263.161342 152.280001 C 1261.293841 152.145001 1259.370091 151.593751 1257.558841 151.627501 C 1248.16509 151.818751 1237.376339 151.335001 1229.411338 151.335001 C 872.280055 151.323751 515.148772 151.323751 158.028739 151.323751 C 153.371239 151.323751 148.803738 151.875001 144.326238 152.955002 C 143.921238 153.056252 143.572488 153.236252 143.257488 153.495002 C 141.851238 154.653752 140.624987 155.137502 139.623737 156.656252 C 137.103737 160.470002 135.809987 163.327503 135.776237 165.195003 C 135.314987 182.936254 135.134987 195.581256 135.236237 203.107506 C 135.303737 209.396257 135.337487 215.696257 135.337487 221.985008 C 135.337487 551.205039 135.337487 880.571319 135.337487 1210.08385 C 135.337487 1213.88635 135.596237 1218.1726 135.551237 1221.648851 C 135.326237 1234.226352 135.281237 1249.391353 135.404987 1267.132605 C 135.449987 1272.813855 137.418737 1277.538856 141.311238 1281.307606 C 141.401238 1281.397606 141.468738 1281.408856 141.536238 1281.341356 L 141.772488 1281.093856 C 141.873738 1281.003856 141.974988 1280.992606 142.098738 1281.060106 " stroke="#e3eaf2" stroke-width="2" stroke-opacity="1" stroke-miterlimit="4"/><path stroke-linecap="butt" transform="matrix(0.347222, 0, 0, 0.347222, -54.687491, -54.687496)" fill="none" stroke-linejoin="miter" d="M 310.668753 897.693821 C 313.717504 900.843821 315.123754 904.713821 314.887504 909.270072 C 314.865004 909.675072 314.988754 910.023822 315.225004 910.338822 C 315.742504 911.002572 316.057504 911.756322 316.158754 912.611322 C 316.203754 913.061322 316.395004 913.432572 316.710004 913.736322 L 320.557504 917.280072 C 320.850004 917.550073 321.041254 917.876323 321.108754 918.270073 L 323.077504 928.687574 C 323.133754 929.036324 323.325004 929.261324 323.640004 929.396324 C 324.911255 929.925074 326.058755 930.633824 327.071255 931.522574 C 328.848755 933.075074 329.096255 935.673824 330.255005 937.845074 C 331.143755 939.487575 331.875005 940.601325 332.482505 941.186325 C 332.808755 941.490075 333.067505 941.850075 333.247505 942.255075 C 333.708755 943.290075 334.372505 944.133825 335.227506 944.808825 C 335.565006 945.078825 335.767506 945.438825 335.823756 945.888825 C 335.913756 946.563825 336.161256 947.182575 336.566256 947.745075 C 336.802506 948.060075 336.948756 948.408825 337.005006 948.813825 C 337.162506 949.871326 337.713756 950.490076 338.658756 950.692576 C 339.018756 950.771326 339.322506 950.940076 339.581256 951.187576 L 342.675006 954.236326 C 342.978756 954.528826 343.215006 954.866326 343.395006 955.237576 L 344.981256 958.488826 C 345.206256 958.972576 345.588756 959.220076 346.128757 959.253826 C 349.132507 959.377576 350.572507 962.527577 351.798757 964.856327 C 351.978757 965.205077 352.271257 965.463827 352.642507 965.632577 C 355.173757 966.780077 356.782508 968.355077 357.468758 970.380077 C 358.188758 972.461328 359.392508 973.653828 361.091258 973.980078 C 361.473758 974.047578 361.822508 974.205078 362.103758 974.452578 C 363.690008 975.723828 364.815008 977.343828 365.501258 979.267578 C 365.692508 979.762578 366.030008 980.122578 366.513758 980.325078 C 367.402508 980.696328 368.246259 981.135078 369.056259 981.630078 C 369.945009 982.192579 370.766259 983.025079 371.531259 984.138829 C 372.577509 985.702579 373.140009 986.838829 374.996259 987.626329 C 377.640009 988.740079 379.53001 989.538829 380.31751 992.553829 C 380.43001 992.98133 380.70001 993.24008 381.13876 993.35258 C 381.51001 993.44258 381.73501 993.74633 381.79126 994.27508 C 381.83626 994.71383 382.08376 994.95008 382.53376 994.95008 C 385.50376 994.99508 387.41626 996.35633 388.31626 999.04508 C 388.44001 999.42758 388.60876 999.78758 388.82251 1000.12508 C 389.04751 1000.45133 389.306261 1000.73258 389.587511 1000.96883 C 389.868761 1001.19383 390.172511 1001.36258 390.487511 1001.47508 C 390.813761 1001.57633 391.128761 1001.62133 391.443761 1001.58758 C 392.400011 1001.49758 393.547511 1001.90258 394.886261 1002.78008 C 396.101261 1003.57883 397.361261 1004.366331 398.666261 1005.131331 C 399.015011 1005.322581 399.296261 1005.603831 399.498761 1005.952581 C 400.848762 1008.112581 402.187512 1009.271331 403.548762 1009.428831 C 407.126262 1009.833831 409.365012 1011.656331 410.276262 1014.907582 C 410.388762 1015.323832 410.658763 1015.582582 411.086263 1015.683832 C 414.933763 1016.572582 417.971263 1017.416332 420.187513 1018.215082 C 421.886264 1018.833832 423.011264 1020.026332 423.562514 1021.792582 C 423.708764 1022.287582 424.035014 1022.602582 424.541264 1022.715082 L 432.933765 1024.875082 C 433.305015 1024.965082 433.620015 1025.156332 433.890015 1025.415083 L 438.367515 1029.982583 C 438.705015 1030.320083 439.110015 1030.421333 439.571265 1030.286333 C 440.437515 1030.005083 441.078765 1030.128833 441.517515 1030.635083 C 441.753765 1030.893833 442.035015 1031.085083 442.361265 1031.197583 L 448.188766 1033.031333 C 448.616266 1033.166333 448.942516 1033.425083 449.178766 1033.807583 C 450.461266 1035.888833 451.788766 1035.978833 453.555016 1037.193834 C 453.723767 1037.317584 453.712516 1037.373834 453.510016 1037.373834 C 451.440016 1037.362584 449.966266 1036.541334 449.066266 1034.887583 C 448.841266 1034.460083 448.503766 1034.145083 448.053766 1033.942583 C 445.893766 1032.930083 444.363766 1031.951333 441.832515 1031.456333 C 437.715015 1030.635083 434.261265 1028.598833 431.505014 1025.358833 C 430.740014 1024.470082 429.255014 1024.132582 427.027514 1024.335082 C 426.048764 1024.425082 426.037514 1024.560082 427.005014 1024.740082 L 429.885014 1025.302583 C 430.233764 1025.370083 430.503764 1025.550083 430.717514 1025.820083 C 432.495015 1028.148833 433.991265 1029.532583 435.206265 1029.971333 C 440.493765 1031.838833 444.690016 1032.525083 448.841266 1037.036334 C 449.021266 1037.227584 449.246266 1037.351334 449.505016 1037.430084 L 460.023767 1040.141334 C 460.361267 1040.231334 460.620017 1040.422584 460.788767 1040.726334 C 461.205017 1041.502584 464.040017 1042.650084 465.052518 1043.865084 C 465.311268 1044.191334 465.637518 1044.416334 466.031268 1044.562584 C 467.268768 1045.057584 467.820018 1045.597584 469.203768 1045.732584 C 474.761268 1046.261334 479.092519 1047.420085 481.713769 1052.741335 C 481.781269 1052.876335 481.736269 1052.966335 481.612519 1053.022585 L 481.275019 1053.146335 C 481.072519 1053.236335 480.937519 1053.180085 480.870019 1052.966335 C 480.206269 1050.828835 478.811269 1049.478835 476.673769 1048.893835 C 475.976269 1048.702585 475.942519 1048.781335 476.572519 1049.141335 C 478.080019 1050.018835 479.317519 1051.166335 480.296269 1052.583835 C 480.532519 1052.955085 480.870019 1053.180085 481.297519 1053.270085 C 484.200019 1053.911335 487.12502 1054.361335 490.06127 1054.620085 C 490.65752 1054.676335 491.22002 1054.845085 491.72627 1055.115085 C 492.08627 1055.317585 492.46877 1055.418835 492.87377 1055.452585 C 495.36002 1055.576335 497.486271 1056.442585 499.263771 1058.062586 C 499.556271 1058.332586 499.882521 1058.512586 500.265021 1058.625086 C 501.513771 1058.985086 502.537521 1059.648836 503.325021 1060.605086 C 503.572521 1060.897586 503.876271 1061.077586 504.258771 1061.111336 L 516.723772 1062.495086 C 517.185022 1062.551336 517.635022 1062.675086 518.062522 1062.877586 C 519.176273 1063.395086 520.323773 1063.788836 521.505023 1064.070086 C 521.943773 1064.171336 522.348773 1064.362586 522.708773 1064.632586 C 526.117523 1067.208836 529.908774 1068.592587 534.093774 1068.795087 C 539.572524 1069.053837 543.093775 1069.695087 547.728775 1070.257587 C 548.111275 1070.313837 548.437525 1070.482587 548.685025 1070.763837 C 548.977525 1071.101337 549.348775 1071.202587 549.810025 1071.067587 C 550.113775 1070.977587 550.417525 1070.977587 550.721276 1071.090087 C 553.218776 1072.057587 555.637526 1073.193837 557.988776 1074.510087 C 558.225026 1074.645087 558.607526 1074.701337 559.113776 1074.667587 C 559.327526 1074.667587 559.338776 1074.611337 559.136276 1074.510087 C 557.415026 1073.598837 555.851276 1072.496337 554.456276 1071.213837 C 553.410026 1070.235087 553.578776 1069.875087 554.996276 1070.145087 C 557.437526 1070.595087 559.642526 1071.945087 561.645027 1074.206337 C 561.926277 1074.521337 562.275027 1074.701337 562.702527 1074.723837 C 568.867527 1075.106337 575.032528 1075.308837 581.197528 1075.342587 C 583.908779 1075.353837 587.013779 1076.343837 590.197529 1075.916337 C 590.220029 1075.916337 590.231279 1075.905087 590.231279 1075.882587 C 590.231279 1075.882587 590.231279 1075.860087 590.231279 1075.848837 C 590.231279 1075.826337 590.208779 1075.815087 590.186279 1075.826337 C 588.521279 1075.950087 586.901279 1075.837587 585.292529 1075.455087 C 585.258779 1075.443837 585.236279 1075.432587 585.236279 1075.387587 C 585.236279 1075.376337 585.236279 1075.353837 585.236279 1075.342587 C 585.247529 1075.263837 585.281279 1075.218837 585.360029 1075.230087 C 590.332529 1075.950087 595.54128 1075.635087 600.12003 1076.883837 C 605.463781 1078.312587 610.875031 1080.787588 615.937532 1081.541338 C 620.415032 1082.205088 624.937532 1082.441338 629.493783 1082.250088 C 638.066284 1081.901338 647.955035 1082.508838 655.166285 1082.486338 C 676.788787 1082.385088 693.348789 1083.071338 712.428791 1082.823838 C 734.062543 1082.531338 747.472544 1082.508838 764.988795 1082.160088 C 772.605046 1082.002588 780.221297 1082.058838 787.837548 1082.340088 C 788.332548 1082.351338 788.748798 1082.238838 789.108798 1081.968838 C 789.423798 1081.732588 789.783798 1081.597588 790.188798 1081.563838 L 796.376298 1081.102588 C 796.815048 1081.068838 797.186298 1080.900088 797.478798 1080.562588 C 800.628799 1077.041337 810.3488 1076.107587 813.96005 1075.680087 C 817.6613 1075.218837 824.096301 1074.960087 833.231302 1074.881337 C 837.427552 1074.847587 841.477552 1074.116337 845.370053 1072.687587 C 845.763803 1072.541337 846.090053 1072.316337 846.371303 1072.012587 C 847.473803 1070.786337 848.868803 1070.021337 850.522553 1069.728837 C 858.262554 1068.378837 866.058805 1067.737586 873.900055 1067.805086 C 875.745056 1067.816336 878.028806 1067.028836 879.232556 1066.005086 C 884.745057 1061.268836 890.685057 1060.616336 897.896308 1060.290086 C 898.323808 1060.278836 898.717558 1060.166336 899.088808 1059.952586 L 908.133809 1054.653835 C 908.448809 1054.462585 908.797559 1054.338835 909.180059 1054.293835 L 920.45256 1053.000085 C 920.97006 1052.932585 921.44256 1052.741335 921.85881 1052.437585 C 922.28631 1052.111335 922.59006 1051.717585 922.79256 1051.233835 C 923.64756 1049.231335 926.51631 1049.051335 927.967561 1048.365085 C 931.961311 1046.520084 936.157561 1045.417584 940.590062 1045.068834 C 941.017562 1045.035084 941.400062 1044.866334 941.703812 1044.562584 C 943.908812 1042.526334 946.383812 1040.917584 949.117562 1039.736334 C 951.165063 1038.847584 953.718813 1038.948834 956.036313 1038.206334 C 956.463813 1038.071334 956.790063 1037.812584 957.015063 1037.430084 C 959.748813 1032.682583 964.248814 1031.973833 970.132564 1030.916333 C 970.571314 1030.848833 970.942564 1030.623833 971.223815 1030.275083 C 972.821315 1028.317583 973.923815 1026.720083 976.308815 1025.685083 C 978.828815 1024.582582 981.427565 1023.761332 984.105066 1023.232582 C 984.791316 1023.097582 985.308816 1022.715082 985.646316 1022.096332 L 987.187566 1019.193832 C 987.423816 1018.755082 987.772566 1018.451332 988.245066 1018.282582 C 989.988816 1017.675082 991.687566 1016.988832 993.352567 1016.201332 C 994.218817 1015.796332 995.456317 1014.817582 997.053817 1013.276331 C 998.437567 1011.948831 1000.125067 1011.060081 1002.127567 1010.621331 C 1002.442567 1010.553831 1002.712567 1010.407581 1002.948817 1010.193831 C 1003.590068 1009.620081 1004.343818 1009.338831 1005.210068 1009.361331 C 1005.637568 1009.383831 1005.997568 1009.237581 1006.301318 1008.922581 C 1008.416318 1006.807581 1009.822568 1004.681331 1012.477568 1003.09508 C 1014.817569 1001.68883 1017.011319 1000.06883 1019.058819 998.22383 C 1019.137569 998.15633 1019.182569 998.08883 1019.216319 997.99883 C 1019.250069 997.87508 1019.295069 997.76258 1019.351319 997.65008 C 1019.452569 997.42508 1019.598819 997.25633 1019.801319 997.13258 C 1023.997569 994.63508 1027.03507 994.97258 1030.88257 990.213829 C 1032.82882 987.817579 1035.855071 988.481329 1037.632571 985.927579 C 1038.161321 985.162579 1038.712571 984.217579 1039.263821 983.103829 C 1039.961321 981.675078 1041.682571 981.607578 1042.661321 980.853828 C 1044.258821 979.582578 1044.528821 978.052578 1045.890071 976.815078 C 1048.353822 974.565078 1050.738822 972.236328 1053.045072 969.828827 C 1053.292572 969.570077 1053.472572 969.266327 1053.585072 968.928827 C 1053.641322 968.737577 1053.708822 968.557577 1053.798822 968.377577 C 1053.945072 968.107577 1054.192572 967.860077 1054.541322 967.635077 C 1059.108823 964.800077 1059.435073 960.412576 1064.553823 958.455076 C 1064.958823 958.297576 1065.262573 958.016326 1065.465073 957.611326 C 1068.997574 950.478826 1071.585074 945.978825 1073.205074 944.077575 C 1074.116324 943.020075 1074.690074 941.962575 1074.926324 940.882575 C 1075.005074 940.488825 1075.218824 940.162575 1075.545074 939.903825 C 1080.821325 935.853824 1083.228825 928.417574 1086.783825 922.860073 C 1088.358825 920.407573 1088.651325 917.280072 1090.282576 914.805072 C 1091.947576 912.296322 1093.725076 909.855072 1095.637576 907.481322 C 1095.896326 907.155072 1096.008826 906.772572 1095.963826 906.345071 C 1095.513826 902.632571 1096.121326 899.133821 1097.775076 895.82632 C 1098.000076 895.38757 1098.303826 895.00507 1098.686326 894.66757 C 1101.690077 892.10257 1103.062577 888.26632 1102.815077 883.181319 C 1102.601327 878.636319 1103.467577 869.220068 1105.425077 854.932567 C 1105.672577 853.121317 1106.550077 851.546316 1107.562577 850.117566 C 1112.400078 843.198816 1109.936327 830.328814 1109.936327 823.218814 C 1109.936327 674.84255 1110.026327 526.466286 1110.195077 378.078772 C 1110.217577 370.001272 1110.116327 362.103771 1109.902577 354.37502 C 1109.902577 354.12752 1109.846327 353.89127 1109.756327 353.67752 C 1109.655077 353.46377 1109.520077 353.26127 1109.351327 353.10377 C 1109.182577 352.93502 1108.980077 352.80002 1108.755077 352.71002 C 1108.541327 352.62002 1108.305077 352.57502 1108.068827 352.57502 L 1000.395067 352.68752 C 1000.192567 352.68752 1000.001317 352.72127 999.832567 352.78877 C 999.652567 352.85627 999.495067 352.95752 999.348817 353.08127 C 999.213817 353.20502 999.112567 353.35127 999.033817 353.52002 C 998.966317 353.68877 998.932567 353.85752 998.932567 354.03752 L 998.932567 381.048773 C 998.932567 381.386273 998.865067 381.723773 998.741317 382.038773 C 998.673817 382.241273 998.640067 382.443773 998.640067 382.657523 C 998.606317 524.576286 998.538817 666.495049 998.415067 808.402562 C 998.403817 814.387563 998.741317 820.338813 998.628817 826.323814 C 998.572567 829.192564 997.807567 831.532565 996.918817 834.176315 C 996.806317 834.491315 996.615067 834.738815 996.356317 834.930065 C 995.771317 835.368815 995.445067 836.111315 995.343817 837.146315 C 995.220067 838.620065 994.398817 840.082565 992.880067 841.511315 C 992.565067 841.803815 992.407566 842.163816 992.396316 842.602566 C 992.385066 845.606316 992.621317 847.743816 991.732566 850.860066 C 991.237566 852.592566 991.023816 854.358817 991.091316 856.170067 C 991.113816 856.552567 990.990066 856.901317 990.731316 857.216317 C 990.078816 858.015067 989.673816 858.915067 989.505066 859.916317 C 989.437566 860.321317 989.280066 860.692567 989.010066 861.007567 C 986.355066 864.247568 985.410066 867.453818 984.026316 871.098818 C 983.047566 873.686318 983.340066 877.545069 981.450065 879.446319 C 979.245065 881.662569 977.850065 883.721319 977.242565 885.62257 C 976.106315 889.24507 973.451315 890.62882 971.111315 893.28382 C 970.796314 893.63257 970.605064 894.03757 970.560064 894.49882 C 970.357564 896.152571 969.682564 897.581321 968.512564 898.785071 C 968.197564 899.088821 967.995064 899.460071 967.893814 899.865071 C 967.455064 901.518821 966.453814 902.700071 964.912564 903.420071 C 964.496314 903.611321 964.170064 903.903821 963.933814 904.286321 C 961.942564 907.526322 959.827563 909.911322 957.611313 911.407572 C 955.125063 913.117572 953.471313 915.165072 952.638813 917.538823 C 952.503813 917.932573 952.233813 918.157573 951.817563 918.236323 C 948.341312 918.877573 946.147562 921.678823 943.380062 924.862573 C 943.121312 925.155073 942.795062 925.346323 942.401312 925.425073 C 941.838812 925.537573 941.355062 925.796323 940.983812 926.190073 C 940.680062 926.505073 940.353812 926.752573 939.971312 926.932573 L 934.841311 929.531324 C 934.436311 929.745074 934.121311 930.048824 933.907561 930.453824 C 932.568811 933.108824 929.632561 934.098824 927.09006 935.235074 C 926.71881 935.392574 926.41506 935.662574 926.19006 936.033824 C 924.68256 938.655074 922.84881 940.241325 920.71131 940.792575 C 918.28131 941.411325 916.515059 942.097575 915.401309 942.840075 C 915.142559 943.020075 914.861309 943.098825 914.557559 943.098825 C 914.276309 943.087575 913.995059 943.110075 913.747559 943.188825 C 913.432559 943.267575 913.151309 943.413825 912.926309 943.638825 L 909.337559 947.182575 C 909.011309 947.508825 908.628809 947.722575 908.190059 947.835075 C 905.467558 948.476325 902.756308 949.117575 900.067558 949.758825 C 894.926307 950.962576 893.812557 956.216326 888.165057 956.250076 C 883.181306 956.272576 879.761306 958.275076 876.600056 961.931327 C 876.318806 962.268827 875.958806 962.493827 875.531306 962.606327 C 874.192556 962.988827 872.820055 963.123827 871.436305 963.000077 C 870.986305 962.966327 870.547555 963.033827 870.142555 963.213827 C 868.500055 963.978827 866.756305 964.350077 864.911305 964.305077 C 864.495055 964.293827 864.123805 964.406327 863.786305 964.642577 C 863.325055 964.968827 862.818804 965.092577 862.267554 964.991327 C 861.795054 964.912577 861.333804 964.957577 860.883804 965.115077 C 859.781304 965.497577 858.813804 966.105077 857.981304 966.937577 C 857.722554 967.218827 857.407554 967.365077 857.036304 967.410077 C 854.088804 967.770077 851.681303 969.547577 848.182553 970.413827 C 847.935053 970.470077 847.541303 970.481327 846.978803 970.470077 C 846.427553 970.447577 846.000053 970.638827 845.696303 971.055077 C 845.460053 971.370077 845.156303 971.538828 844.762553 971.561328 C 839.452552 971.955078 832.972552 971.010077 828.022551 972.697578 C 827.246301 972.967578 826.065051 973.710078 824.478801 974.936328 C 823.252551 975.892578 821.812551 976.466328 820.158801 976.657578 C 819.74255 976.702578 819.3938 976.893828 819.11255 977.220078 C 818.8988 977.478828 818.70755 977.636328 818.52755 977.681328 C 815.31005 978.401328 812.0363 978.693828 808.717549 978.547578 C 800.831299 978.187578 791.910048 978.660078 784.091297 979.796328 C 782.370047 980.043828 779.973797 979.717578 777.937547 980.707578 C 777.588797 980.876328 777.206297 980.966328 776.801296 980.955078 C 774.630046 980.932578 773.448796 981.045078 771.468796 982.316329 C 769.038796 983.880079 766.215046 984.723829 763.031295 984.847579 C 758.036295 985.027579 751.646294 985.848829 746.043794 985.938829 C 718.065041 986.388829 690.075038 986.343829 662.096286 985.826329 C 655.976285 985.713829 649.215035 984.656329 642.768784 984.296329 C 641.160034 984.217579 639.765034 983.643829 638.190034 983.238829 C 637.830034 983.148829 637.526284 982.968829 637.278784 982.687579 C 636.558783 981.911328 635.703783 981.326328 634.725033 980.921328 C 634.005033 980.628828 633.645033 980.482578 633.645033 980.482578 C 632.722533 979.841328 631.687533 979.728828 630.573783 980.156328 C 630.180033 980.313828 629.775033 980.370078 629.347533 980.347578 C 625.713782 980.032578 622.080032 979.908828 618.435032 979.965078 C 616.432532 979.998828 614.688781 979.121328 612.506281 978.885078 C 607.230031 978.288828 602.33628 978.007578 597.82503 978.030078 C 596.98128 978.041328 596.11503 977.895078 595.26003 977.580078 C 592.953779 976.781328 591.255029 976.623828 589.151279 975.307578 C 585.832529 973.237578 583.211279 971.572578 579.082528 971.426328 C 574.942528 971.268827 570.836277 970.976327 566.741277 970.548827 C 559.665026 969.783827 556.335026 969.952577 551.992526 966.071327 C 550.147525 964.451327 548.392525 963.438827 546.716275 963.056327 C 545.658775 962.808827 543.251275 962.550077 539.493774 962.268827 C 539.088774 962.223827 538.762524 962.043827 538.537524 961.706327 L 538.031274 960.907577 C 537.828774 960.603827 537.570024 960.345076 537.255024 960.153826 C 534.971274 958.657576 533.598774 957.262576 530.707524 956.936326 C 524.081273 956.193826 516.206272 955.158826 511.098772 949.961326 C 510.795022 949.646325 510.423772 949.466325 509.985022 949.421325 C 507.217521 949.106325 504.551271 948.408825 501.986271 947.351325 C 499.421271 946.293825 497.846271 944.381325 495.82127 942.480075 C 495.50627 942.187575 495.13502 941.985075 494.71877 941.895075 C 492.48002 941.377575 490.37627 940.590075 488.38502 939.510075 C 485.223769 937.822574 484.290019 934.492574 480.093769 933.165074 C 479.688769 933.041324 479.385019 932.805074 479.182519 932.445074 C 477.427519 929.486324 475.470019 927.236323 472.005018 927.067573 C 471.600018 927.056323 471.228768 926.921323 470.902518 926.662573 C 469.845018 925.863823 468.821268 925.065073 467.808768 924.277573 C 465.446268 922.410073 464.445017 919.586323 460.732517 918.832573 C 460.316267 918.753823 459.978767 918.540073 459.731267 918.202573 C 458.898767 917.066322 457.380017 916.740072 456.828767 915.187572 C 456.727517 914.895072 456.536267 914.692572 456.232517 914.580072 C 455.838767 914.433822 455.568767 914.197572 455.433767 913.882572 C 455.276267 913.500072 455.017517 913.196322 454.657517 912.982572 C 452.902516 911.925072 451.417516 911.362572 450.090016 909.675072 C 447.851266 906.817572 445.252516 904.297571 442.316265 902.115071 C 441.922515 901.822571 441.630015 901.462571 441.461265 901.012571 C 440.527515 898.728821 439.065015 896.816321 437.051265 895.29757 C 436.792515 895.10632 436.511265 894.98257 436.185015 894.93757 C 435.746265 894.89257 435.588765 894.65632 435.723765 894.22882 C 435.858765 893.83507 435.768765 893.49757 435.465015 893.22757 C 434.137515 892.05757 433.338765 890.62882 433.057515 888.96382 C 432.742515 886.99507 432.045014 886.29757 431.010014 884.835069 C 430.762514 884.497569 430.447514 884.250069 430.065014 884.092569 C 428.175014 883.327569 427.331264 881.955069 427.545014 879.986319 C 427.556264 879.840069 427.500014 879.716319 427.398764 879.603819 L 427.095014 879.300069 C 426.768764 878.973819 426.600014 878.568819 426.600014 878.107569 C 426.577514 875.992569 426.172514 873.967568 425.385014 872.032568 C 425.216264 871.582568 424.935014 871.200068 424.563764 870.896318 C 423.472514 869.996318 422.741264 868.758818 422.358764 867.150068 C 422.302514 866.936318 422.156264 866.790068 421.897514 866.722568 C 421.672514 866.655068 421.526264 866.497568 421.458764 866.272568 C 420.851263 864.146318 419.782513 862.650067 419.557513 860.433817 C 419.118763 856.102567 417.645013 852.277566 416.542513 848.126316 C 416.261263 847.057566 415.676263 845.842566 414.798763 844.492566 C 412.953763 841.702565 411.907513 837.067565 411.648763 830.598814 C 411.255013 820.777564 411.108763 810.956313 411.198763 801.135062 C 411.356263 786.07131 411.423763 778.51131 411.423763 778.46631 C 411.446263 637.582547 411.457513 496.372533 411.468763 354.82502 C 411.468763 354.26252 411.300013 353.74502 410.973763 353.28377 C 410.647513 352.82252 410.208762 352.49627 409.680012 352.30502 C 407.565012 351.57377 405.168762 353.05877 403.042512 353.09252 C 391.567511 353.23877 380.09251 353.10377 368.617509 352.68752 C 348.817507 351.96752 323.718754 353.07002 301.365002 352.55252 C 301.162502 352.54127 300.960002 352.58627 300.768752 352.65377 C 300.577502 352.73252 300.408752 352.84502 300.251252 352.99127 C 300.105002 353.13752 299.992502 353.30627 299.913752 353.49752 C 299.823752 353.68877 299.790002 353.89127 299.790002 354.10502 C 299.745002 516.532535 299.745002 679.0163 299.801252 841.567565 C 299.801252 847.991316 300.465002 856.698817 300.195002 864.326318 C 300.116252 866.340068 300.667502 868.275068 301.095002 870.221318 C 301.185002 870.615068 301.353752 870.975068 301.635002 871.278818 C 301.972502 871.661318 302.355002 871.965068 302.782502 872.190068 C 305.336253 873.506318 306.956253 876.172569 307.091253 878.940069 C 307.125003 879.693819 307.260003 880.312569 307.485003 880.785069 C 307.642503 881.145069 307.743753 881.516319 307.755003 881.910069 C 308.002503 886.55632 307.215003 894.15007 310.668753 897.693821 " stroke="#e3eaf2" stroke-width="2" stroke-opacity="1" stroke-miterlimit="4"/><path stroke-linecap="butt" transform="matrix(0.347222, 0, 0, 0.347222, -54.687491, -54.687496)" fill="none" stroke-linejoin="miter" d="M 1098.033826 891.77632 C 1097.853826 891.86632 1097.707576 892.00132 1097.595076 892.19257 C 1097.516326 892.31632 1097.493826 892.45132 1097.505076 892.57507 C 1097.516326 892.74382 1097.595076 892.76632 1097.718826 892.65382 C 1098.652576 891.83257 1099.350076 890.84257 1099.822576 889.70632 C 1099.935076 889.44757 1099.901326 889.43632 1099.732576 889.65007 L 1098.247576 891.59632 C 1098.191326 891.66382 1098.123826 891.72007 1098.033826 891.77632 " stroke="#e3eaf2" stroke-width="2" stroke-opacity="1" stroke-miterlimit="4"/><path stroke-linecap="butt" transform="matrix(0.347222, 0, 0, 0.347222, -54.687491, -54.687496)" fill="none" stroke-linejoin="miter" d="M 468.911268 1044.697584 C 471.015018 1045.552584 473.208768 1045.833834 475.515019 1045.563834 C 475.526269 1045.563834 475.537519 1045.575084 475.537519 1045.586334 C 475.537519 1045.597584 475.537519 1045.608834 475.537519 1045.620084 C 475.526269 1045.698834 475.526269 1045.743834 475.526269 1045.743834 L 470.025018 1044.585084 C 469.620018 1044.495084 469.305018 1044.281334 469.068768 1043.955084 C 468.168768 1042.661334 467.010018 1041.626334 465.603768 1040.850084 C 465.378768 1040.726334 465.232518 1040.557584 465.153768 1040.343834 C 465.052518 1040.040084 464.850018 1039.837584 464.557518 1039.725084 C 461.767517 1038.678834 458.898767 1038.071334 455.928767 1037.880084 C 454.736267 1037.812584 454.713767 1037.925084 455.895017 1038.206334 C 458.201267 1038.780084 460.620017 1039.455084 463.151267 1040.242584 C 464.546268 1040.692584 466.166268 1042.301334 466.886268 1043.190084 C 467.437518 1043.865084 468.112518 1044.371334 468.911268 1044.697584 " stroke="#e3eaf2" stroke-width="2" stroke-opacity="1" stroke-miterlimit="4"/><path stroke-linecap="butt" transform="matrix(0.347222, 0, 0, 0.347222, -54.687491, -54.687496)" fill="none" stroke-linejoin="miter" d="M 506.520021 1058.580086 C 503.381271 1057.612586 502.998771 1054.485085 499.421271 1054.001335 C 499.410021 1054.001335 499.387521 1054.001335 499.387521 1054.023835 C 498.971271 1054.856335 498.982521 1054.867585 499.410021 1054.035085 C 499.443771 1053.956335 499.500021 1053.933835 499.578771 1053.978835 C 501.502521 1054.743835 503.055021 1055.992585 504.247521 1057.713836 C 504.472521 1058.062586 504.776271 1058.265086 505.181271 1058.321336 C 505.665021 1058.388836 506.103771 1058.512586 506.520021 1058.692586 C 506.531271 1058.692586 506.542521 1058.692586 506.553771 1058.692586 C 506.553771 1058.681336 506.553771 1058.670086 506.565021 1058.658836 C 506.576271 1058.625086 506.553771 1058.602586 506.520021 1058.580086 " stroke="#e3eaf2" stroke-width="2" stroke-opacity="1" stroke-miterlimit="4"/><path fill="#000000" d="M -54.6875 -54.6875 L 435.058594 -54.6875 L 435.058594 435.058594 L -54.6875 435.058594 Z M -5.347656 390.125 C -4.558594 390.539062 -4.035156 390.757812 -3.785156 390.78125 C 0.808594 391.210938 5.003906 391.105469 10.046875 391.207031 C 17.53125 391.363281 27.6875 391.273438 37.820312 391.273438 C 107.660156 391.273438 177.5 391.273438 247.339844 391.273438 C 247.429688 391.269531 247.503906 391.304688 247.5625 391.371094 C 247.660156 391.476562 247.757812 391.480469 247.855469 391.390625 C 247.941406 391.308594 248.042969 391.265625 248.160156 391.265625 C 262.429688 391.273438 276.699219 391.28125 290.96875 391.285156 C 293.667969 391.285156 296.253906 391.265625 298.730469 391.226562 C 301.113281 391.265625 303.625 391.285156 306.273438 391.28125 C 321.765625 391.269531 337.261719 391.238281 352.753906 391.195312 C 353.808594 391.191406 354.859375 391.21875 355.910156 391.277344 C 357.492188 391.363281 359.511719 391.382812 361.109375 391.257812 C 361.613281 391.21875 362.117188 391.214844 362.621094 391.25 C 364.15625 391.34375 365.640625 391.125 367.152344 391.355469 C 367.464844 391.40625 367.757812 391.363281 368.027344 391.226562 C 368.152344 391.160156 368.289062 391.132812 368.433594 391.132812 C 373.328125 391.132812 378.695312 391.542969 383.492188 390.507812 C 385.390625 390.097656 385.652344 387.402344 385.652344 385.859375 C 385.691406 262.246094 385.707031 138.628906 385.707031 15.015625 C 385.707031 15.003906 385.746094 13.050781 385.820312 9.15625 C 385.882812 5.933594 385.742188 2.714844 385.398438 -0.496094 C 385.300781 -1.4375 384.855469 -1.746094 383.910156 -1.8125 C 383.261719 -1.859375 382.59375 -2.050781 381.964844 -2.039062 C 378.703125 -1.972656 374.957031 -2.140625 372.191406 -2.140625 C 248.1875 -2.144531 124.183594 -2.144531 0.183594 -2.144531 C -1.433594 -2.144531 -3.019531 -1.953125 -4.574219 -1.578125 C -4.714844 -1.542969 -4.835938 -1.480469 -4.945312 -1.390625 C -5.433594 -0.988281 -5.859375 -0.820312 -6.207031 -0.292969 C -7.082031 1.03125 -7.53125 2.023438 -7.542969 2.671875 C -7.703125 8.832031 -7.761719 13.222656 -7.730469 15.835938 C -7.707031 18.019531 -7.695312 20.207031 -7.695312 22.390625 C -7.695312 136.703125 -7.695312 251.066406 -7.695312 365.480469 C -7.695312 366.800781 -7.605469 368.289062 -7.621094 369.496094 C -7.699219 373.863281 -7.714844 379.128906 -7.671875 385.289062 C -7.65625 387.261719 -6.972656 388.902344 -5.621094 390.210938 C -5.589844 390.242188 -5.566406 390.246094 -5.542969 390.222656 L -5.460938 390.136719 C -5.425781 390.105469 -5.390625 390.101562 -5.347656 390.125 Z M -5.347656 390.125 " fill-opacity="1" fill-rule="nonzero"/><path fill="#000000" d="M -5.460938 390.136719 L -5.542969 390.222656 C -5.566406 390.246094 -5.589844 390.242188 -5.621094 390.210938 C -6.972656 388.902344 -7.65625 387.261719 -7.671875 385.289062 C -7.714844 379.128906 -7.699219 373.863281 -7.621094 369.496094 C -7.605469 368.289062 -7.695312 366.800781 -7.695312 365.480469 C -7.695312 251.066406 -7.695312 136.703125 -7.695312 22.390625 C -7.695312 20.207031 -7.707031 18.019531 -7.730469 15.835938 C -7.761719 13.222656 -7.703125 8.832031 -7.542969 2.671875 C -7.53125 2.023438 -7.082031 1.03125 -6.207031 -0.292969 C -5.859375 -0.820312 -5.433594 -0.988281 -4.945312 -1.390625 C -4.835938 -1.480469 -4.714844 -1.542969 -4.574219 -1.578125 C -3.019531 -1.953125 -1.433594 -2.144531 0.183594 -2.144531 C 124.183594 -2.144531 248.1875 -2.144531 372.191406 -2.140625 C 374.957031 -2.140625 378.703125 -1.972656 381.964844 -2.039062 C 382.59375 -2.050781 383.261719 -1.859375 383.910156 -1.8125 C 384.855469 -1.746094 385.300781 -1.4375 385.398438 -0.496094 C 385.742188 2.714844 385.882812 5.933594 385.820312 9.15625 C 385.746094 13.050781 385.707031 15.003906 385.707031 15.015625 C 385.707031 138.628906 385.691406 262.246094 385.652344 385.859375 C 385.652344 387.402344 385.390625 390.097656 383.492188 390.507812 C 378.695312 391.542969 373.328125 391.132812 368.433594 391.132812 C 368.289062 391.132812 368.152344 391.160156 368.027344 391.226562 C 367.757812 391.363281 367.464844 391.40625 367.152344 391.355469 C 365.640625 391.125 364.15625 391.34375 362.621094 391.25 C 362.117188 391.214844 361.613281 391.21875 361.109375 391.257812 C 359.511719 391.382812 357.492188 391.363281 355.910156 391.277344 C 354.859375 391.21875 353.808594 391.191406 352.753906 391.195312 C 337.261719 391.238281 321.765625 391.269531 306.273438 391.28125 C 303.625 391.285156 301.113281 391.265625 298.730469 391.226562 C 296.253906 391.265625 293.667969 391.285156 290.96875 391.285156 C 276.699219 391.28125 262.429688 391.273438 248.160156 391.265625 C 248.042969 391.265625 247.941406 391.308594 247.855469 391.390625 C 247.757812 391.480469 247.660156 391.476562 247.5625 391.371094 C 247.503906 391.304688 247.429688 391.269531 247.339844 391.273438 C 177.5 391.273438 107.660156 391.273438 37.820312 391.273438 C 27.6875 391.273438 17.53125 391.363281 10.046875 391.207031 C 5.003906 391.105469 0.808594 391.210938 -3.785156 390.78125 C -4.035156 390.757812 -4.558594 390.539062 -5.347656 390.125 C -5.390625 390.101562 -5.425781 390.105469 -5.460938 390.136719 Z M -0.21875 389.3125 C 127.453125 389.25 255.121094 389.238281 382.789062 389.28125 C 382.929688 389.28125 383.058594 389.242188 383.171875 389.167969 C 384.210938 388.496094 384.734375 387.695312 384.734375 386.765625 C 384.734375 258.996094 384.734375 131.234375 384.734375 3.46875 C 384.734375 2.519531 384.667969 1.847656 384.542969 1.445312 C 383.832031 -0.773438 379.84375 -0.734375 377.839844 -0.734375 C 251.984375 -0.734375 126.128906 -0.734375 0.277344 -0.734375 C -1.4375 -0.734375 -2.476562 -0.679688 -2.847656 -0.566406 C -5.425781 0.21875 -5.164062 3.125 -5.164062 5.285156 C -5.234375 131.800781 -5.265625 258.320312 -5.265625 384.835938 C -5.265625 386.324219 -4.898438 388.777344 -3.203125 389.25 C -2.09375 389.5625 -1.058594 389.3125 -0.21875 389.3125 Z M -0.21875 389.3125 " fill-opacity="1" fill-rule="nonzero"/><path fill="#000000" d="M 275.453125 307.972656 C 274.691406 308.445312 274.140625 308.734375 273.796875 308.835938 C 271.371094 309.574219 269.558594 310.292969 268.359375 310.992188 C 267.75 311.347656 266.652344 311.695312 265.066406 312.042969 C 264.191406 312.230469 263.277344 312.542969 262.328125 312.976562 C 259.824219 314.117188 257.191406 314.363281 254.75 315.367188 C 253.074219 316.050781 251.960938 316.429688 251.410156 316.496094 C 248.113281 316.894531 244.902344 317.652344 241.777344 318.773438 C 240.984375 319.050781 239.449219 319.289062 237.167969 319.488281 C 232.269531 319.90625 227.613281 321.269531 222.730469 321.667969 C 217.617188 322.082031 212.492188 322.347656 207.375 322.707031 C 200.011719 323.222656 192.464844 323.753906 185.082031 323.390625 C 171.21875 322.710938 161.167969 322.074219 154.929688 321.480469 C 154.207031 321.410156 152.71875 321.128906 150.460938 320.640625 C 145.4375 319.546875 140.390625 319.523438 135.464844 317.992188 C 132.476562 317.0625 129.339844 316.917969 126.429688 315.855469 C 125.148438 315.386719 124.046875 314.859375 122.664062 314.617188 C 120.707031 314.28125 118.832031 313.699219 117.03125 312.875 C 114.621094 311.773438 112.148438 311.460938 109.734375 310.242188 C 107.910156 309.320312 105.820312 309.167969 104.15625 308.0625 C 102.589844 307.03125 100.875 306.664062 99.261719 305.730469 C 98.289062 305.171875 97.292969 304.664062 96.273438 304.210938 C 94.535156 303.441406 93.183594 302.402344 91.53125 301.671875 C 90.078125 301.023438 88.554688 299.867188 87.550781 299.265625 C 82.882812 296.46875 79.363281 293.855469 75.148438 290.425781 C 72.78125 288.5 70.757812 286.699219 69.078125 285.023438 C 63.417969 279.386719 59.140625 273.613281 55.34375 266.675781 C 54.167969 264.539062 53.3125 262.132812 52.269531 259.828125 C 51.859375 258.921875 51.507812 257.847656 51.207031 256.609375 C 50.761719 254.769531 49.886719 252.722656 49.5 251.246094 C 49.082031 249.625 48.8125 247.976562 48.695312 246.296875 C 48.527344 243.925781 48.253906 241.539062 48.253906 239.191406 C 48.253906 182.15625 48.253906 125.125 48.253906 68.09375 C 48.253906 67.277344 48.488281 66.660156 48.855469 65.984375 C 48.941406 65.828125 49.058594 65.707031 49.210938 65.617188 C 49.363281 65.527344 49.523438 65.480469 49.703125 65.480469 L 87.75 65.484375 C 87.863281 65.484375 87.96875 65.507812 88.074219 65.550781 C 88.179688 65.59375 88.269531 65.652344 88.347656 65.730469 C 88.425781 65.8125 88.488281 65.902344 88.53125 66.003906 C 88.574219 66.105469 88.59375 66.214844 88.59375 66.324219 C 88.597656 67.261719 89.046875 68.070312 89.046875 68.996094 C 89.046875 122.015625 89.046875 175.035156 89.046875 228.050781 C 89.046875 231.289062 89.574219 234.636719 90.628906 238.09375 C 91.273438 240.207031 91.449219 242.484375 92.34375 244.449219 C 93.351562 246.640625 94.191406 248.890625 95.484375 250.917969 C 96.054688 251.808594 96.628906 252.699219 97.203125 253.589844 C 104.039062 264.125 115.078125 270.988281 126.410156 275.773438 C 128.261719 276.554688 130.453125 277.171875 132.488281 277.945312 C 133.925781 278.496094 135.3125 278.925781 136.644531 279.234375 C 139.738281 279.949219 142.480469 281.121094 145.078125 281.445312 C 148.402344 281.863281 150.816406 282.273438 152.324219 282.683594 C 154.460938 283.257812 155.933594 283.59375 156.746094 283.691406 C 161.621094 284.273438 167.042969 284.484375 171.398438 284.839844 C 174.453125 285.085938 177.507812 285.277344 180.566406 285.414062 C 184.816406 285.597656 190.292969 286.148438 195.335938 285.632812 C 196.40625 285.523438 197.359375 285.449219 198.199219 285.417969 C 199.152344 285.382812 200.105469 285.335938 201.058594 285.277344 C 204.84375 285.046875 208.628906 284.824219 212.410156 284.601562 C 216.664062 284.351562 220.972656 284.097656 225.203125 283.265625 C 226.929688 282.925781 228.65625 282.589844 230.386719 282.253906 C 233.160156 281.710938 235.765625 281.523438 238.625 280.480469 C 241.207031 279.539062 243.917969 279.308594 246.460938 278.296875 C 247.621094 277.828125 248.640625 277.34375 249.917969 277.007812 C 252.328125 276.367188 254.246094 275.144531 256.621094 274.335938 C 258.351562 273.746094 260.300781 272.484375 261.425781 271.898438 C 269.984375 267.414062 277 261.207031 282.46875 253.269531 C 282.929688 252.597656 283.484375 251.609375 284.128906 250.304688 C 284.820312 248.925781 285.671875 247.707031 286.160156 246.257812 C 287.105469 243.464844 288.296875 240.769531 288.792969 237.925781 C 289.871094 231.742188 290.410156 226.109375 290.410156 221.019531 C 290.40625 170.417969 290.40625 119.8125 290.410156 69.210938 C 290.410156 68.054688 291.117188 65.484375 292.613281 65.484375 C 305.140625 65.484375 317.707031 65.480469 330.316406 65.480469 C 330.613281 65.480469 330.808594 65.621094 330.898438 65.902344 C 331.347656 67.289062 331.648438 68.664062 331.648438 70.207031 C 331.652344 125.425781 331.652344 180.648438 331.648438 235.867188 C 331.648438 236.597656 331.417969 237.488281 331.417969 238.140625 C 331.425781 241.195312 331.25 243.726562 330.882812 245.734375 C 330.519531 247.746094 329.53125 250.875 329.078125 253.582031 C 328.882812 254.726562 328.699219 255.792969 328.195312 256.898438 C 327.171875 259.15625 326.503906 261.613281 325.457031 263.71875 C 323.300781 268.058594 321.046875 272.21875 318.074219 276.054688 C 312.664062 283.023438 306.1875 289.382812 298.976562 294.507812 C 294.015625 298.035156 289.84375 300.394531 285.496094 302.890625 C 284.808594 303.285156 283.996094 303.710938 283.054688 304.15625 C 281.628906 304.835938 280.34375 305.792969 278.902344 306.363281 C 277.671875 306.847656 276.625 307.246094 275.453125 307.972656 Z M 53.183594 257.011719 C 54.242188 258.105469 54.730469 259.449219 54.648438 261.03125 C 54.640625 261.171875 54.683594 261.292969 54.765625 261.402344 C 54.945312 261.632812 55.054688 261.894531 55.089844 262.191406 C 55.105469 262.347656 55.171875 262.476562 55.28125 262.582031 L 56.617188 263.8125 C 56.71875 263.90625 56.785156 264.019531 56.808594 264.15625 L 57.492188 267.773438 C 57.511719 267.894531 57.578125 267.972656 57.6875 268.019531 C 58.128906 268.203125 58.527344 268.449219 58.878906 268.757812 C 59.496094 269.296875 59.582031 270.199219 59.984375 270.953125 C 60.292969 271.523438 60.546875 271.910156 60.757812 272.113281 C 60.871094 272.21875 60.960938 272.34375 61.023438 272.484375 C 61.183594 272.84375 61.414062 273.136719 61.710938 273.371094 C 61.828125 273.464844 61.898438 273.589844 61.917969 273.746094 C 61.949219 273.980469 62.035156 274.195312 62.175781 274.390625 C 62.257812 274.5 62.308594 274.621094 62.328125 274.761719 C 62.382812 275.128906 62.574219 275.34375 62.902344 275.414062 C 63.027344 275.441406 63.132812 275.5 63.222656 275.585938 L 64.296875 276.644531 C 64.402344 276.746094 64.484375 276.863281 64.546875 276.992188 L 65.097656 278.121094 C 65.175781 278.289062 65.308594 278.375 65.496094 278.386719 C 66.539062 278.429688 67.039062 279.523438 67.464844 280.332031 C 67.527344 280.453125 67.628906 280.542969 67.757812 280.601562 C 68.636719 281 69.195312 281.546875 69.433594 282.25 C 69.683594 282.972656 70.101562 283.386719 70.691406 283.5 C 70.824219 283.523438 70.945312 283.578125 71.042969 283.664062 C 71.59375 284.105469 71.984375 284.667969 72.222656 285.335938 C 72.289062 285.507812 72.40625 285.632812 72.574219 285.703125 C 72.882812 285.832031 73.175781 285.984375 73.457031 286.15625 C 73.765625 286.351562 74.050781 286.640625 74.316406 287.027344 C 74.679688 287.570312 74.875 287.964844 75.519531 288.238281 C 76.4375 288.625 77.09375 288.902344 77.367188 289.949219 C 77.40625 290.097656 77.5 290.1875 77.652344 290.226562 C 77.78125 290.257812 77.859375 290.363281 77.878906 290.546875 C 77.894531 290.699219 77.980469 290.78125 78.136719 290.78125 C 79.167969 290.796875 79.832031 291.269531 80.144531 292.203125 C 80.1875 292.335938 80.246094 292.460938 80.320312 292.578125 C 80.398438 292.691406 80.488281 292.789062 80.585938 292.871094 C 80.683594 292.949219 80.789062 293.007812 80.898438 293.046875 C 81.011719 293.082031 81.121094 293.097656 81.230469 293.085938 C 81.5625 293.054688 81.960938 293.195312 82.425781 293.5 C 82.847656 293.777344 83.285156 294.050781 83.738281 294.316406 C 83.859375 294.382812 83.957031 294.480469 84.027344 294.601562 C 84.496094 295.351562 84.960938 295.753906 85.433594 295.808594 C 86.675781 295.949219 87.453125 296.582031 87.769531 297.710938 C 87.808594 297.855469 87.902344 297.945312 88.050781 297.980469 C 89.386719 298.289062 90.441406 298.582031 91.210938 298.859375 C 91.800781 299.074219 92.191406 299.488281 92.382812 300.101562 C 92.433594 300.273438 92.546875 300.382812 92.722656 300.421875 L 95.636719 301.171875 C 95.765625 301.203125 95.875 301.269531 95.96875 301.359375 L 97.523438 302.945312 C 97.640625 303.0625 97.78125 303.097656 97.941406 303.050781 C 98.242188 302.953125 98.464844 302.996094 98.617188 303.171875 C 98.699219 303.261719 98.796875 303.328125 98.910156 303.367188 L 100.933594 304.003906 C 101.082031 304.050781 101.195312 304.140625 101.277344 304.273438 C 101.722656 304.996094 102.183594 305.027344 102.796875 305.449219 C 102.855469 305.492188 102.851562 305.511719 102.78125 305.511719 C 102.0625 305.507812 101.550781 305.222656 101.238281 304.648438 C 101.160156 304.5 101.042969 304.390625 100.886719 304.320312 C 100.136719 303.96875 99.605469 303.628906 98.726562 303.457031 C 97.296875 303.171875 96.097656 302.464844 95.140625 301.339844 C 94.875 301.03125 94.359375 300.914062 93.585938 300.984375 C 93.246094 301.015625 93.242188 301.0625 93.578125 301.125 L 94.578125 301.320312 C 94.699219 301.34375 94.792969 301.40625 94.867188 301.5 C 95.484375 302.308594 96.003906 302.789062 96.425781 302.941406 C 98.261719 303.589844 99.71875 303.828125 101.160156 305.394531 C 101.222656 305.460938 101.300781 305.503906 101.390625 305.53125 L 105.042969 306.472656 C 105.160156 306.503906 105.25 306.570312 105.308594 306.675781 C 105.453125 306.945312 106.4375 307.34375 106.789062 307.765625 C 106.878906 307.878906 106.992188 307.957031 107.128906 308.007812 C 107.558594 308.179688 107.75 308.367188 108.230469 308.414062 C 110.160156 308.597656 111.664062 309 112.574219 310.847656 C 112.597656 310.894531 112.582031 310.925781 112.539062 310.945312 L 112.421875 310.988281 C 112.351562 311.019531 112.304688 311 112.28125 310.925781 C 112.050781 310.183594 111.566406 309.714844 110.824219 309.511719 C 110.582031 309.445312 110.570312 309.472656 110.789062 309.597656 C 111.3125 309.902344 111.742188 310.300781 112.082031 310.792969 C 112.164062 310.921875 112.28125 311 112.429688 311.03125 C 113.4375 311.253906 114.453125 311.410156 115.472656 311.5 C 115.679688 311.519531 115.875 311.578125 116.050781 311.671875 C 116.175781 311.742188 116.308594 311.777344 116.449219 311.789062 C 117.3125 311.832031 118.050781 312.132812 118.667969 312.695312 C 118.769531 312.789062 118.882812 312.851562 119.015625 312.890625 C 119.449219 313.015625 119.804688 313.246094 120.078125 313.578125 C 120.164062 313.679688 120.269531 313.742188 120.402344 313.753906 L 124.730469 314.234375 C 124.890625 314.253906 125.046875 314.296875 125.195312 314.367188 C 125.582031 314.546875 125.980469 314.683594 126.390625 314.78125 C 126.542969 314.816406 126.683594 314.882812 126.808594 314.976562 C 127.992188 315.871094 129.308594 316.351562 130.761719 316.421875 C 132.664062 316.511719 133.886719 316.734375 135.496094 316.929688 C 135.628906 316.949219 135.742188 317.007812 135.828125 317.105469 C 135.929688 317.222656 136.058594 317.257812 136.21875 317.210938 C 136.324219 317.179688 136.429688 317.179688 136.535156 317.21875 C 137.402344 317.554688 138.242188 317.949219 139.058594 318.40625 C 139.140625 318.453125 139.273438 318.472656 139.449219 318.460938 C 139.523438 318.460938 139.527344 318.441406 139.457031 318.40625 C 138.859375 318.089844 138.316406 317.707031 137.832031 317.261719 C 137.46875 316.921875 137.527344 316.796875 138.019531 316.890625 C 138.867188 317.046875 139.632812 317.515625 140.328125 318.300781 C 140.425781 318.410156 140.546875 318.472656 140.695312 318.480469 C 142.835938 318.613281 144.976562 318.683594 147.117188 318.695312 C 148.058594 318.699219 149.136719 319.042969 150.242188 318.894531 C 150.25 318.894531 150.253906 318.890625 150.253906 318.882812 C 150.253906 318.882812 150.253906 318.875 150.253906 318.871094 C 150.253906 318.863281 150.246094 318.859375 150.238281 318.863281 C 149.660156 318.90625 149.097656 318.867188 148.539062 318.734375 C 148.527344 318.730469 148.519531 318.726562 148.519531 318.710938 C 148.519531 318.707031 148.519531 318.699219 148.519531 318.695312 C 148.523438 318.667969 148.535156 318.652344 148.5625 318.65625 C 150.289062 318.90625 152.097656 318.796875 153.6875 319.230469 C 155.542969 319.726562 157.421875 320.585938 159.179688 320.847656 C 160.734375 321.078125 162.304688 321.160156 163.886719 321.09375 C 166.863281 320.972656 170.296875 321.183594 172.800781 321.175781 C 180.308594 321.140625 186.058594 321.378906 192.683594 321.292969 C 200.195312 321.191406 204.851562 321.183594 210.933594 321.0625 C 213.578125 321.007812 216.222656 321.027344 218.867188 321.125 C 219.039062 321.128906 219.183594 321.089844 219.308594 320.996094 C 219.417969 320.914062 219.542969 320.867188 219.683594 320.855469 L 221.832031 320.695312 C 221.984375 320.683594 222.113281 320.625 222.214844 320.507812 C 223.308594 319.285156 226.683594 318.960938 227.9375 318.8125 C 229.222656 318.652344 231.457031 318.5625 234.628906 318.535156 C 236.085938 318.523438 237.492188 318.269531 238.84375 317.773438 C 238.980469 317.722656 239.09375 317.644531 239.191406 317.539062 C 239.574219 317.113281 240.058594 316.847656 240.632812 316.746094 C 243.320312 316.277344 246.027344 316.054688 248.75 316.078125 C 249.390625 316.082031 250.183594 315.808594 250.601562 315.453125 C 252.515625 313.808594 254.578125 313.582031 257.082031 313.46875 C 257.230469 313.464844 257.367188 313.425781 257.496094 313.351562 L 260.636719 311.511719 C 260.746094 311.445312 260.867188 311.402344 261 311.386719 L 264.914062 310.9375 C 265.09375 310.914062 265.257812 310.847656 265.402344 310.742188 C 265.550781 310.628906 265.65625 310.492188 265.726562 310.324219 C 266.023438 309.628906 267.019531 309.566406 267.523438 309.328125 C 268.910156 308.6875 270.367188 308.304688 271.90625 308.183594 C 272.054688 308.171875 272.1875 308.113281 272.292969 308.007812 C 273.058594 307.300781 273.917969 306.742188 274.867188 306.332031 C 275.578125 306.023438 276.464844 306.058594 277.269531 305.800781 C 277.417969 305.753906 277.53125 305.664062 277.609375 305.53125 C 278.558594 303.882812 280.121094 303.636719 282.164062 303.269531 C 282.316406 303.246094 282.445312 303.167969 282.542969 303.046875 C 283.097656 302.367188 283.480469 301.8125 284.308594 301.453125 C 285.183594 301.070312 286.085938 300.785156 287.015625 300.601562 C 287.253906 300.554688 287.433594 300.421875 287.550781 300.207031 L 288.085938 299.199219 C 288.167969 299.046875 288.289062 298.941406 288.453125 298.882812 C 289.058594 298.671875 289.648438 298.433594 290.226562 298.160156 C 290.527344 298.019531 290.957031 297.679688 291.511719 297.144531 C 291.992188 296.683594 292.578125 296.375 293.273438 296.222656 C 293.382812 296.199219 293.476562 296.148438 293.558594 296.074219 C 293.78125 295.875 294.042969 295.777344 294.34375 295.785156 C 294.492188 295.792969 294.617188 295.742188 294.722656 295.632812 C 295.457031 294.898438 295.945312 294.160156 296.867188 293.609375 C 297.679688 293.121094 298.441406 292.558594 299.152344 291.917969 C 299.179688 291.894531 299.195312 291.871094 299.207031 291.839844 C 299.21875 291.796875 299.234375 291.757812 299.253906 291.71875 C 299.289062 291.640625 299.339844 291.582031 299.410156 291.539062 C 300.867188 290.671875 301.921875 290.789062 303.257812 289.136719 C 303.933594 288.304688 304.984375 288.535156 305.601562 287.648438 C 305.785156 287.382812 305.976562 287.054688 306.167969 286.667969 C 306.410156 286.171875 307.007812 286.148438 307.347656 285.886719 C 307.902344 285.445312 307.996094 284.914062 308.46875 284.484375 C 309.324219 283.703125 310.152344 282.894531 310.953125 282.058594 C 311.039062 281.96875 311.101562 281.863281 311.140625 281.746094 C 311.160156 281.679688 311.183594 281.617188 311.214844 281.554688 C 311.265625 281.460938 311.351562 281.375 311.472656 281.296875 C 313.058594 280.3125 313.171875 278.789062 314.949219 278.109375 C 315.089844 278.054688 315.195312 277.957031 315.265625 277.816406 C 316.492188 275.339844 317.390625 273.777344 317.953125 273.117188 C 318.269531 272.75 318.46875 272.382812 318.550781 272.007812 C 318.578125 271.871094 318.652344 271.757812 318.765625 271.667969 C 320.597656 270.261719 321.433594 267.679688 322.667969 265.75 C 323.214844 264.898438 323.316406 263.8125 323.882812 262.953125 C 324.460938 262.082031 325.078125 261.234375 325.742188 260.410156 C 325.832031 260.296875 325.871094 260.164062 325.855469 260.015625 C 325.699219 258.726562 325.910156 257.511719 326.484375 256.363281 C 326.5625 256.210938 326.667969 256.078125 326.800781 255.960938 C 327.84375 255.070312 328.320312 253.738281 328.234375 251.972656 C 328.160156 250.394531 328.460938 247.125 329.140625 242.164062 C 329.226562 241.535156 329.53125 240.988281 329.882812 240.492188 C 331.5625 238.089844 330.707031 233.621094 330.707031 231.152344 C 330.707031 179.632812 330.738281 128.113281 330.796875 76.589844 C 330.804688 73.785156 330.769531 71.042969 330.695312 68.359375 C 330.695312 68.273438 330.675781 68.191406 330.644531 68.117188 C 330.609375 68.042969 330.5625 67.972656 330.503906 67.917969 C 330.445312 67.859375 330.375 67.8125 330.296875 67.78125 C 330.222656 67.75 330.140625 67.734375 330.058594 67.734375 L 292.671875 67.773438 C 292.601562 67.773438 292.535156 67.785156 292.476562 67.808594 C 292.414062 67.832031 292.359375 67.867188 292.308594 67.910156 C 292.261719 67.953125 292.226562 68.003906 292.199219 68.0625 C 292.175781 68.121094 292.164062 68.179688 292.164062 68.242188 L 292.164062 77.621094 C 292.164062 77.738281 292.140625 77.855469 292.097656 77.964844 C 292.074219 78.035156 292.0625 78.105469 292.0625 78.179688 C 292.050781 127.457031 292.027344 176.734375 291.984375 226.007812 C 291.980469 228.085938 292.097656 230.152344 292.058594 232.230469 C 292.039062 233.226562 291.773438 234.039062 291.464844 234.957031 C 291.425781 235.066406 291.359375 235.152344 291.269531 235.21875 C 291.066406 235.371094 290.953125 235.628906 290.917969 235.988281 C 290.875 236.5 290.589844 237.007812 290.0625 237.503906 C 289.953125 237.605469 289.898438 237.730469 289.894531 237.882812 C 289.890625 238.925781 289.972656 239.667969 289.664062 240.75 C 289.492188 241.351562 289.417969 241.964844 289.441406 242.59375 C 289.449219 242.726562 289.40625 242.847656 289.316406 242.957031 C 289.089844 243.234375 288.949219 243.546875 288.890625 243.894531 C 288.867188 244.035156 288.8125 244.164062 288.71875 244.273438 C 287.796875 245.398438 287.46875 246.511719 286.988281 247.777344 C 286.648438 248.675781 286.75 250.015625 286.09375 250.675781 C 285.328125 251.445312 284.84375 252.160156 284.632812 252.820312 C 284.238281 254.078125 283.316406 254.558594 282.503906 255.480469 C 282.394531 255.601562 282.328125 255.742188 282.3125 255.902344 C 282.242188 256.476562 282.007812 256.972656 281.601562 257.390625 C 281.492188 257.496094 281.421875 257.625 281.386719 257.765625 C 281.234375 258.339844 280.886719 258.75 280.351562 259 C 280.207031 259.066406 280.09375 259.167969 280.011719 259.300781 C 279.320312 260.425781 278.585938 261.253906 277.816406 261.773438 C 276.953125 262.367188 276.378906 263.078125 276.089844 263.902344 C 276.042969 264.039062 275.949219 264.117188 275.804688 264.144531 C 274.597656 264.367188 273.835938 265.339844 272.875 266.445312 C 272.785156 266.546875 272.671875 266.613281 272.535156 266.640625 C 272.339844 266.679688 272.171875 266.769531 272.042969 266.90625 C 271.9375 267.015625 271.824219 267.101562 271.691406 267.164062 L 269.910156 268.066406 C 269.769531 268.140625 269.660156 268.246094 269.585938 268.386719 C 269.121094 269.308594 268.101562 269.652344 267.21875 270.046875 C 267.089844 270.101562 266.984375 270.195312 266.90625 270.324219 C 266.382812 271.234375 265.746094 271.785156 265.003906 271.976562 C 264.160156 272.191406 263.546875 272.429688 263.160156 272.6875 C 263.070312 272.75 262.972656 272.777344 262.867188 272.777344 C 262.769531 272.773438 262.671875 272.78125 262.585938 272.808594 C 262.476562 272.835938 262.378906 272.886719 262.300781 272.964844 L 261.054688 274.195312 C 260.941406 274.308594 260.808594 274.382812 260.65625 274.421875 C 259.710938 274.644531 258.769531 274.867188 257.835938 275.089844 C 256.050781 275.507812 255.664062 277.332031 253.703125 277.34375 C 251.972656 277.351562 250.785156 278.046875 249.6875 279.316406 C 249.589844 279.433594 249.464844 279.511719 249.316406 279.550781 C 248.851562 279.683594 248.375 279.730469 247.894531 279.6875 C 247.738281 279.675781 247.585938 279.699219 247.445312 279.761719 C 246.875 280.027344 246.269531 280.15625 245.628906 280.140625 C 245.484375 280.136719 245.355469 280.175781 245.238281 280.257812 C 245.078125 280.371094 244.902344 280.414062 244.710938 280.378906 C 244.546875 280.351562 244.386719 280.367188 244.230469 280.421875 C 243.847656 280.554688 243.511719 280.765625 243.222656 281.054688 C 243.132812 281.152344 243.023438 281.203125 242.894531 281.21875 C 241.871094 281.34375 241.035156 281.960938 239.820312 282.261719 C 239.734375 282.28125 239.597656 282.285156 239.402344 282.28125 C 239.210938 282.273438 239.0625 282.339844 238.957031 282.484375 C 238.875 282.59375 238.769531 282.652344 238.632812 282.660156 C 236.789062 282.796875 234.539062 282.46875 232.820312 283.054688 C 232.550781 283.148438 232.140625 283.40625 231.589844 283.832031 C 231.164062 284.164062 230.664062 284.363281 230.089844 284.429688 C 229.945312 284.445312 229.824219 284.511719 229.726562 284.625 C 229.652344 284.714844 229.585938 284.769531 229.523438 284.785156 C 228.40625 285.035156 227.269531 285.136719 226.117188 285.085938 C 223.378906 284.960938 220.28125 285.125 217.566406 285.519531 C 216.96875 285.605469 216.136719 285.492188 215.429688 285.835938 C 215.308594 285.894531 215.175781 285.925781 215.035156 285.921875 C 214.28125 285.914062 213.871094 285.953125 213.183594 286.394531 C 212.339844 286.9375 211.359375 287.230469 210.253906 287.273438 C 208.519531 287.335938 206.300781 287.621094 204.355469 287.652344 C 194.640625 287.808594 184.921875 287.792969 175.207031 287.613281 C 173.082031 287.574219 170.734375 287.207031 168.496094 287.082031 C 167.9375 287.054688 167.453125 286.855469 166.90625 286.714844 C 166.78125 286.683594 166.675781 286.621094 166.589844 286.523438 C 166.339844 286.253906 166.042969 286.050781 165.703125 285.910156 C 165.453125 285.808594 165.328125 285.757812 165.328125 285.757812 C 165.007812 285.535156 164.648438 285.496094 164.261719 285.644531 C 164.125 285.699219 163.984375 285.71875 163.835938 285.710938 C 162.574219 285.601562 161.3125 285.558594 160.046875 285.578125 C 159.351562 285.589844 158.746094 285.285156 157.988281 285.203125 C 156.15625 284.996094 154.457031 284.898438 152.890625 284.90625 C 152.597656 284.910156 152.296875 284.859375 152 284.75 C 151.199219 284.472656 150.609375 284.417969 149.878906 283.960938 C 148.726562 283.242188 147.816406 282.664062 146.382812 282.613281 C 144.945312 282.558594 143.519531 282.457031 142.097656 282.308594 C 139.640625 282.042969 138.484375 282.101562 136.976562 280.753906 C 136.335938 280.191406 135.726562 279.839844 135.144531 279.707031 C 134.777344 279.621094 133.941406 279.53125 132.636719 279.433594 C 132.496094 279.417969 132.382812 279.355469 132.304688 279.238281 L 132.128906 278.960938 C 132.058594 278.855469 131.96875 278.765625 131.859375 278.699219 C 131.066406 278.179688 130.589844 277.695312 129.585938 277.582031 C 127.285156 277.324219 124.550781 276.964844 122.777344 275.160156 C 122.671875 275.050781 122.542969 274.988281 122.390625 274.972656 C 121.429688 274.863281 120.503906 274.621094 119.613281 274.253906 C 118.722656 273.886719 118.175781 273.222656 117.472656 272.5625 C 117.363281 272.460938 117.234375 272.390625 117.089844 272.359375 C 116.3125 272.179688 115.582031 271.90625 114.890625 271.53125 C 113.792969 270.945312 113.46875 269.789062 112.011719 269.328125 C 111.871094 269.285156 111.765625 269.203125 111.695312 269.078125 C 111.085938 268.050781 110.40625 267.269531 109.203125 267.210938 C 109.0625 267.207031 108.933594 267.160156 108.820312 267.070312 C 108.453125 266.792969 108.097656 266.515625 107.746094 266.242188 C 106.925781 265.59375 106.578125 264.613281 105.289062 264.351562 C 105.144531 264.324219 105.027344 264.25 104.941406 264.132812 C 104.652344 263.738281 104.125 263.625 103.933594 263.085938 C 103.898438 262.984375 103.832031 262.914062 103.726562 262.875 C 103.589844 262.824219 103.496094 262.742188 103.449219 262.632812 C 103.394531 262.5 103.304688 262.394531 103.179688 262.320312 C 102.570312 261.953125 102.054688 261.757812 101.59375 261.171875 C 100.816406 260.179688 99.914062 259.304688 98.894531 258.546875 C 98.757812 258.445312 98.65625 258.320312 98.597656 258.164062 C 98.273438 257.371094 97.765625 256.707031 97.066406 256.179688 C 96.976562 256.113281 96.878906 256.070312 96.765625 256.054688 C 96.613281 256.039062 96.558594 255.957031 96.605469 255.808594 C 96.652344 255.671875 96.621094 255.554688 96.515625 255.460938 C 96.054688 255.054688 95.777344 254.558594 95.679688 253.980469 C 95.570312 253.296875 95.328125 253.054688 94.96875 252.546875 C 94.882812 252.429688 94.773438 252.34375 94.640625 252.289062 C 93.984375 252.023438 93.691406 251.546875 93.765625 250.863281 C 93.769531 250.8125 93.75 250.769531 93.714844 250.730469 L 93.609375 250.625 C 93.496094 250.511719 93.4375 250.371094 93.4375 250.210938 C 93.429688 249.476562 93.289062 248.773438 93.015625 248.101562 C 92.957031 247.945312 92.859375 247.8125 92.730469 247.707031 C 92.351562 247.394531 92.097656 246.964844 91.964844 246.40625 C 91.945312 246.332031 91.894531 246.28125 91.804688 246.257812 C 91.726562 246.234375 91.675781 246.179688 91.652344 246.101562 C 91.441406 245.363281 91.070312 244.84375 90.992188 244.074219 C 90.839844 242.570312 90.328125 241.242188 89.945312 239.800781 C 89.847656 239.429688 89.644531 239.007812 89.339844 238.539062 C 88.699219 237.570312 88.335938 235.960938 88.246094 233.714844 C 88.109375 230.304688 88.058594 226.894531 88.089844 223.484375 C 88.144531 218.253906 88.167969 215.628906 88.167969 215.613281 C 88.175781 166.695312 88.179688 117.664062 88.183594 68.515625 C 88.183594 68.320312 88.125 68.140625 88.011719 67.980469 C 87.898438 67.820312 87.746094 67.707031 87.5625 67.640625 C 86.828125 67.386719 85.996094 67.902344 85.257812 67.914062 C 81.273438 67.964844 77.289062 67.917969 73.304688 67.773438 C 66.429688 67.523438 57.714844 67.90625 49.953125 67.726562 C 49.882812 67.722656 49.8125 67.738281 49.746094 67.761719 C 49.679688 67.789062 49.621094 67.828125 49.566406 67.878906 C 49.515625 67.929688 49.476562 67.988281 49.449219 68.054688 C 49.417969 68.121094 49.40625 68.191406 49.40625 68.265625 C 49.390625 124.664062 49.390625 181.082031 49.410156 237.523438 C 49.410156 239.753906 49.640625 242.777344 49.546875 245.425781 C 49.519531 246.125 49.710938 246.796875 49.859375 247.472656 C 49.890625 247.609375 49.949219 247.734375 50.046875 247.839844 C 50.164062 247.972656 50.296875 248.078125 50.445312 248.15625 C 51.332031 248.613281 51.894531 249.539062 51.941406 250.5 C 51.953125 250.761719 52 250.976562 52.078125 251.140625 C 52.132812 251.265625 52.167969 251.394531 52.171875 251.53125 C 52.257812 253.144531 51.984375 255.78125 53.183594 257.011719 Z M 53.183594 257.011719 " fill-opacity="1" fill-rule="nonzero"/><path fill="#000000" d="M 53.183594 257.011719 C 51.984375 255.78125 52.257812 253.144531 52.171875 251.53125 C 52.167969 251.394531 52.132812 251.265625 52.078125 251.140625 C 52 250.976562 51.953125 250.761719 51.941406 250.5 C 51.894531 249.539062 51.332031 248.613281 50.445312 248.15625 C 50.296875 248.078125 50.164062 247.972656 50.046875 247.839844 C 49.949219 247.734375 49.890625 247.609375 49.859375 247.472656 C 49.710938 246.796875 49.519531 246.125 49.546875 245.425781 C 49.640625 242.777344 49.410156 239.753906 49.410156 237.523438 C 49.390625 181.082031 49.390625 124.664062 49.40625 68.265625 C 49.40625 68.191406 49.417969 68.121094 49.449219 68.054688 C 49.476562 67.988281 49.515625 67.929688 49.566406 67.878906 C 49.621094 67.828125 49.679688 67.789062 49.746094 67.761719 C 49.8125 67.738281 49.882812 67.722656 49.953125 67.726562 C 57.714844 67.90625 66.429688 67.523438 73.304688 67.773438 C 77.289062 67.917969 81.273438 67.964844 85.257812 67.914062 C 85.996094 67.902344 86.828125 67.386719 87.5625 67.640625 C 87.746094 67.707031 87.898438 67.820312 88.011719 67.980469 C 88.125 68.140625 88.183594 68.320312 88.183594 68.515625 C 88.179688 117.664062 88.175781 166.695312 88.167969 215.613281 C 88.167969 215.628906 88.144531 218.253906 88.089844 223.484375 C 88.058594 226.894531 88.109375 230.304688 88.246094 233.714844 C 88.335938 235.960938 88.699219 237.570312 89.339844 238.539062 C 89.644531 239.007812 89.847656 239.429688 89.945312 239.800781 C 90.328125 241.242188 90.839844 242.570312 90.992188 244.074219 C 91.070312 244.84375 91.441406 245.363281 91.652344 246.101562 C 91.675781 246.179688 91.726562 246.234375 91.804688 246.257812 C 91.894531 246.28125 91.945312 246.332031 91.964844 246.40625 C 92.097656 246.964844 92.351562 247.394531 92.730469 247.707031 C 92.859375 247.8125 92.957031 247.945312 93.015625 248.101562 C 93.289062 248.773438 93.429688 249.476562 93.4375 250.210938 C 93.4375 250.371094 93.496094 250.511719 93.609375 250.625 L 93.714844 250.730469 C 93.75 250.769531 93.769531 250.8125 93.765625 250.863281 C 93.691406 251.546875 93.984375 252.023438 94.640625 252.289062 C 94.773438 252.34375 94.882812 252.429688 94.96875 252.546875 C 95.328125 253.054688 95.570312 253.296875 95.679688 253.980469 C 95.777344 254.558594 96.054688 255.054688 96.515625 255.460938 C 96.621094 255.554688 96.652344 255.671875 96.605469 255.808594 C 96.558594 255.957031 96.613281 256.039062 96.765625 256.054688 C 96.878906 256.070312 96.976562 256.113281 97.066406 256.179688 C 97.765625 256.707031 98.273438 257.371094 98.597656 258.164062 C 98.65625 258.320312 98.757812 258.445312 98.894531 258.546875 C 99.914062 259.304688 100.816406 260.179688 101.59375 261.171875 C 102.054688 261.757812 102.570312 261.953125 103.179688 262.320312 C 103.304688 262.394531 103.394531 262.5 103.449219 262.632812 C 103.496094 262.742188 103.589844 262.824219 103.726562 262.875 C 103.832031 262.914062 103.898438 262.984375 103.933594 263.085938 C 104.125 263.625 104.652344 263.738281 104.941406 264.132812 C 105.027344 264.25 105.144531 264.324219 105.289062 264.351562 C 106.578125 264.613281 106.925781 265.59375 107.746094 266.242188 C 108.097656 266.515625 108.453125 266.792969 108.820312 267.070312 C 108.933594 267.160156 109.0625 267.207031 109.203125 267.210938 C 110.40625 267.269531 111.085938 268.050781 111.695312 269.078125 C 111.765625 269.203125 111.871094 269.285156 112.011719 269.328125 C 113.46875 269.789062 113.792969 270.945312 114.890625 271.53125 C 115.582031 271.90625 116.3125 272.179688 117.089844 272.359375 C 117.234375 272.390625 117.363281 272.460938 117.472656 272.5625 C 118.175781 273.222656 118.722656 273.886719 119.613281 274.253906 C 120.503906 274.621094 121.429688 274.863281 122.390625 274.972656 C 122.542969 274.988281 122.671875 275.050781 122.777344 275.160156 C 124.550781 276.964844 127.285156 277.324219 129.585938 277.582031 C 130.589844 277.695312 131.066406 278.179688 131.859375 278.699219 C 131.96875 278.765625 132.058594 278.855469 132.128906 278.960938 L 132.304688 279.238281 C 132.382812 279.355469 132.496094 279.417969 132.636719 279.433594 C 133.941406 279.53125 134.777344 279.621094 135.144531 279.707031 C 135.726562 279.839844 136.335938 280.191406 136.976562 280.753906 C 138.484375 282.101562 139.640625 282.042969 142.097656 282.308594 C 143.519531 282.457031 144.945312 282.558594 146.382812 282.613281 C 147.816406 282.664062 148.726562 283.242188 149.878906 283.960938 C 150.609375 284.417969 151.199219 284.472656 152 284.75 C 152.296875 284.859375 152.597656 284.910156 152.890625 284.90625 C 154.457031 284.898438 156.15625 284.996094 157.988281 285.203125 C 158.746094 285.285156 159.351562 285.589844 160.046875 285.578125 C 161.3125 285.558594 162.574219 285.601562 163.835938 285.710938 C 163.984375 285.71875 164.125 285.699219 164.261719 285.644531 C 164.648438 285.496094 165.007812 285.535156 165.328125 285.757812 C 165.328125 285.757812 165.453125 285.808594 165.703125 285.910156 C 166.042969 286.050781 166.339844 286.253906 166.589844 286.523438 C 166.675781 286.621094 166.78125 286.683594 166.90625 286.714844 C 167.453125 286.855469 167.9375 287.054688 168.496094 287.082031 C 170.734375 287.207031 173.082031 287.574219 175.207031 287.613281 C 184.921875 287.792969 194.640625 287.808594 204.355469 287.652344 C 206.300781 287.621094 208.519531 287.335938 210.253906 287.273438 C 211.359375 287.230469 212.339844 286.9375 213.183594 286.394531 C 213.871094 285.953125 214.28125 285.914062 215.035156 285.921875 C 215.175781 285.925781 215.308594 285.894531 215.429688 285.835938 C 216.136719 285.492188 216.96875 285.605469 217.566406 285.519531 C 220.28125 285.125 223.378906 284.960938 226.117188 285.085938 C 227.269531 285.136719 228.40625 285.035156 229.523438 284.785156 C 229.585938 284.769531 229.652344 284.714844 229.726562 284.625 C 229.824219 284.511719 229.945312 284.445312 230.089844 284.429688 C 230.664062 284.363281 231.164062 284.164062 231.589844 283.832031 C 232.140625 283.40625 232.550781 283.148438 232.820312 283.054688 C 234.539062 282.46875 236.789062 282.796875 238.632812 282.660156 C 238.769531 282.652344 238.875 282.59375 238.957031 282.484375 C 239.0625 282.339844 239.210938 282.273438 239.402344 282.28125 C 239.597656 282.285156 239.734375 282.28125 239.820312 282.261719 C 241.035156 281.960938 241.871094 281.34375 242.894531 281.21875 C 243.023438 281.203125 243.132812 281.152344 243.222656 281.054688 C 243.511719 280.765625 243.847656 280.554688 244.230469 280.421875 C 244.386719 280.367188 244.546875 280.351562 244.710938 280.378906 C 244.902344 280.414062 245.078125 280.371094 245.238281 280.257812 C 245.355469 280.175781 245.484375 280.136719 245.628906 280.140625 C 246.269531 280.15625 246.875 280.027344 247.445312 279.761719 C 247.585938 279.699219 247.738281 279.675781 247.894531 279.6875 C 248.375 279.730469 248.851562 279.683594 249.316406 279.550781 C 249.464844 279.511719 249.589844 279.433594 249.6875 279.316406 C 250.785156 278.046875 251.972656 277.351562 253.703125 277.34375 C 255.664062 277.332031 256.050781 275.507812 257.835938 275.089844 C 258.769531 274.867188 259.710938 274.644531 260.65625 274.421875 C 260.808594 274.382812 260.941406 274.308594 261.054688 274.195312 L 262.300781 272.964844 C 262.378906 272.886719 262.476562 272.835938 262.585938 272.808594 C 262.671875 272.78125 262.769531 272.773438 262.867188 272.777344 C 262.972656 272.777344 263.070312 272.75 263.160156 272.6875 C 263.546875 272.429688 264.160156 272.191406 265.003906 271.976562 C 265.746094 271.785156 266.382812 271.234375 266.90625 270.324219 C 266.984375 270.195312 267.089844 270.101562 267.21875 270.046875 C 268.101562 269.652344 269.121094 269.308594 269.585938 268.386719 C 269.660156 268.246094 269.769531 268.140625 269.910156 268.066406 L 271.691406 267.164062 C 271.824219 267.101562 271.9375 267.015625 272.042969 266.90625 C 272.171875 266.769531 272.339844 266.679688 272.535156 266.640625 C 272.671875 266.613281 272.785156 266.546875 272.875 266.445312 C 273.835938 265.339844 274.597656 264.367188 275.804688 264.144531 C 275.949219 264.117188 276.042969 264.039062 276.089844 263.902344 C 276.378906 263.078125 276.953125 262.367188 277.816406 261.773438 C 278.585938 261.253906 279.320312 260.425781 280.011719 259.300781 C 280.09375 259.167969 280.207031 259.066406 280.351562 259 C 280.886719 258.75 281.234375 258.339844 281.386719 257.765625 C 281.421875 257.625 281.492188 257.496094 281.601562 257.390625 C 282.007812 256.972656 282.242188 256.476562 282.3125 255.902344 C 282.328125 255.742188 282.394531 255.601562 282.503906 255.480469 C 283.316406 254.558594 284.238281 254.078125 284.632812 252.820312 C 284.84375 252.160156 285.328125 251.445312 286.09375 250.675781 C 286.75 250.015625 286.648438 248.675781 286.988281 247.777344 C 287.46875 246.511719 287.796875 245.398438 288.71875 244.273438 C 288.8125 244.164062 288.867188 244.035156 288.890625 243.894531 C 288.949219 243.546875 289.089844 243.234375 289.316406 242.957031 C 289.40625 242.847656 289.449219 242.726562 289.441406 242.59375 C 289.417969 241.964844 289.492188 241.351562 289.664062 240.75 C 289.972656 239.667969 289.890625 238.925781 289.894531 237.882812 C 289.898438 237.730469 289.953125 237.605469 290.0625 237.503906 C 290.589844 237.007812 290.875 236.5 290.917969 235.988281 C 290.953125 235.628906 291.066406 235.371094 291.269531 235.21875 C 291.359375 235.152344 291.425781 235.066406 291.464844 234.957031 C 291.773438 234.039062 292.039062 233.226562 292.058594 232.230469 C 292.097656 230.152344 291.980469 228.085938 291.984375 226.007812 C 292.027344 176.734375 292.050781 127.457031 292.0625 78.179688 C 292.0625 78.105469 292.074219 78.035156 292.097656 77.964844 C 292.140625 77.855469 292.164062 77.738281 292.164062 77.621094 L 292.164062 68.242188 C 292.164062 68.179688 292.175781 68.121094 292.199219 68.0625 C 292.226562 68.003906 292.261719 67.953125 292.308594 67.910156 C 292.359375 67.867188 292.414062 67.832031 292.476562 67.808594 C 292.535156 67.785156 292.601562 67.773438 292.671875 67.773438 L 330.058594 67.734375 C 330.140625 67.734375 330.222656 67.75 330.296875 67.78125 C 330.375 67.8125 330.445312 67.859375 330.503906 67.917969 C 330.5625 67.972656 330.609375 68.042969 330.644531 68.117188 C 330.675781 68.191406 330.695312 68.273438 330.695312 68.359375 C 330.769531 71.042969 330.804688 73.785156 330.796875 76.589844 C 330.738281 128.113281 330.707031 179.632812 330.707031 231.152344 C 330.707031 233.621094 331.5625 238.089844 329.882812 240.492188 C 329.53125 240.988281 329.226562 241.535156 329.140625 242.164062 C 328.460938 247.125 328.160156 250.394531 328.234375 251.972656 C 328.320312 253.738281 327.84375 255.070312 326.800781 255.960938 C 326.667969 256.078125 326.5625 256.210938 326.484375 256.363281 C 325.910156 257.511719 325.699219 258.726562 325.855469 260.015625 C 325.871094 260.164062 325.832031 260.296875 325.742188 260.410156 C 325.078125 261.234375 324.460938 262.082031 323.882812 262.953125 C 323.316406 263.8125 323.214844 264.898438 322.667969 265.75 C 321.433594 267.679688 320.597656 270.261719 318.765625 271.667969 C 318.652344 271.757812 318.578125 271.871094 318.550781 272.007812 C 318.46875 272.382812 318.269531 272.75 317.953125 273.117188 C 317.390625 273.777344 316.492188 275.339844 315.265625 277.816406 C 315.195312 277.957031 315.089844 278.054688 314.949219 278.109375 C 313.171875 278.789062 313.058594 280.3125 311.472656 281.296875 C 311.351562 281.375 311.265625 281.460938 311.214844 281.554688 C 311.183594 281.617188 311.160156 281.679688 311.140625 281.746094 C 311.101562 281.863281 311.039062 281.96875 310.953125 282.058594 C 310.152344 282.894531 309.324219 283.703125 308.46875 284.484375 C 307.996094 284.914062 307.902344 285.445312 307.347656 285.886719 C 307.007812 286.148438 306.410156 286.171875 306.167969 286.667969 C 305.976562 287.054688 305.785156 287.382812 305.601562 287.648438 C 304.984375 288.535156 303.933594 288.304688 303.257812 289.136719 C 301.921875 290.789062 300.867188 290.671875 299.410156 291.539062 C 299.339844 291.582031 299.289062 291.640625 299.253906 291.71875 C 299.234375 291.757812 299.21875 291.796875 299.207031 291.839844 C 299.195312 291.871094 299.179688 291.894531 299.152344 291.917969 C 298.441406 292.558594 297.679688 293.121094 296.867188 293.609375 C 295.945312 294.160156 295.457031 294.898438 294.722656 295.632812 C 294.617188 295.742188 294.492188 295.792969 294.34375 295.785156 C 294.042969 295.777344 293.78125 295.875 293.558594 296.074219 C 293.476562 296.148438 293.382812 296.199219 293.273438 296.222656 C 292.578125 296.375 291.992188 296.683594 291.511719 297.144531 C 290.957031 297.679688 290.527344 298.019531 290.226562 298.160156 C 289.648438 298.433594 289.058594 298.671875 288.453125 298.882812 C 288.289062 298.941406 288.167969 299.046875 288.085938 299.199219 L 287.550781 300.207031 C 287.433594 300.421875 287.253906 300.554688 287.015625 300.601562 C 286.085938 300.785156 285.183594 301.070312 284.308594 301.453125 C 283.480469 301.8125 283.097656 302.367188 282.542969 303.046875 C 282.445312 303.167969 282.316406 303.246094 282.164062 303.269531 C 280.121094 303.636719 278.558594 303.882812 277.609375 305.53125 C 277.53125 305.664062 277.417969 305.753906 277.269531 305.800781 C 276.464844 306.058594 275.578125 306.023438 274.867188 306.332031 C 273.917969 306.742188 273.058594 307.300781 272.292969 308.007812 C 272.1875 308.113281 272.054688 308.171875 271.90625 308.183594 C 270.367188 308.304688 268.910156 308.6875 267.523438 309.328125 C 267.019531 309.566406 266.023438 309.628906 265.726562 310.324219 C 265.65625 310.492188 265.550781 310.628906 265.402344 310.742188 C 265.257812 310.847656 265.09375 310.914062 264.914062 310.9375 L 261 311.386719 C 260.867188 311.402344 260.746094 311.445312 260.636719 311.511719 L 257.496094 313.351562 C 257.367188 313.425781 257.230469 313.464844 257.082031 313.46875 C 254.578125 313.582031 252.515625 313.808594 250.601562 315.453125 C 250.183594 315.808594 249.390625 316.082031 248.75 316.078125 C 246.027344 316.054688 243.320312 316.277344 240.632812 316.746094 C 240.058594 316.847656 239.574219 317.113281 239.191406 317.539062 C 239.09375 317.644531 238.980469 317.722656 238.84375 317.773438 C 237.492188 318.269531 236.085938 318.523438 234.628906 318.535156 C 231.457031 318.5625 229.222656 318.652344 227.9375 318.8125 C 226.683594 318.960938 223.308594 319.285156 222.214844 320.507812 C 222.113281 320.625 221.984375 320.683594 221.832031 320.695312 L 219.683594 320.855469 C 219.542969 320.867188 219.417969 320.914062 219.308594 320.996094 C 219.183594 321.089844 219.039062 321.128906 218.867188 321.125 C 216.222656 321.027344 213.578125 321.007812 210.933594 321.0625 C 204.851562 321.183594 200.195312 321.191406 192.683594 321.292969 C 186.058594 321.378906 180.308594 321.140625 172.800781 321.175781 C 170.296875 321.183594 166.863281 320.972656 163.886719 321.09375 C 162.304688 321.160156 160.734375 321.078125 159.179688 320.847656 C 157.421875 320.585938 155.542969 319.726562 153.6875 319.230469 C 152.097656 318.796875 150.289062 318.90625 148.5625 318.65625 C 148.535156 318.652344 148.523438 318.667969 148.519531 318.695312 C 148.519531 318.699219 148.519531 318.707031 148.519531 318.710938 C 148.519531 318.726562 148.527344 318.730469 148.539062 318.734375 C 149.097656 318.867188 149.660156 318.90625 150.238281 318.863281 C 150.246094 318.859375 150.253906 318.863281 150.253906 318.871094 C 150.253906 318.875 150.253906 318.882812 150.253906 318.882812 C 150.253906 318.890625 150.25 318.894531 150.242188 318.894531 C 149.136719 319.042969 148.058594 318.699219 147.117188 318.695312 C 144.976562 318.683594 142.835938 318.613281 140.695312 318.480469 C 140.546875 318.472656 140.425781 318.410156 140.328125 318.300781 C 139.632812 317.515625 138.867188 317.046875 138.019531 316.890625 C 137.527344 316.796875 137.46875 316.921875 137.832031 317.261719 C 138.316406 317.707031 138.859375 318.089844 139.457031 318.40625 C 139.527344 318.441406 139.523438 318.460938 139.449219 318.460938 C 139.273438 318.472656 139.140625 318.453125 139.058594 318.40625 C 138.242188 317.949219 137.402344 317.554688 136.535156 317.21875 C 136.429688 317.179688 136.324219 317.179688 136.21875 317.210938 C 136.058594 317.257812 135.929688 317.222656 135.828125 317.105469 C 135.742188 317.007812 135.628906 316.949219 135.496094 316.929688 C 133.886719 316.734375 132.664062 316.511719 130.761719 316.421875 C 129.308594 316.351562 127.992188 315.871094 126.808594 314.976562 C 126.683594 314.882812 126.542969 314.816406 126.390625 314.78125 C 125.980469 314.683594 125.582031 314.546875 125.195312 314.367188 C 125.046875 314.296875 124.890625 314.253906 124.730469 314.234375 L 120.402344 313.753906 C 120.269531 313.742188 120.164062 313.679688 120.078125 313.578125 C 119.804688 313.246094 119.449219 313.015625 119.015625 312.890625 C 118.882812 312.851562 118.769531 312.789062 118.667969 312.695312 C 118.050781 312.132812 117.3125 311.832031 116.449219 311.789062 C 116.308594 311.777344 116.175781 311.742188 116.050781 311.671875 C 115.875 311.578125 115.679688 311.519531 115.472656 311.5 C 114.453125 311.410156 113.4375 311.253906 112.429688 311.03125 C 112.28125 311 112.164062 310.921875 112.082031 310.792969 C 111.742188 310.300781 111.3125 309.902344 110.789062 309.597656 C 110.570312 309.472656 110.582031 309.445312 110.824219 309.511719 C 111.566406 309.714844 112.050781 310.183594 112.28125 310.925781 C 112.304688 311 112.351562 311.019531 112.421875 310.988281 L 112.539062 310.945312 C 112.582031 310.925781 112.597656 310.894531 112.574219 310.847656 C 111.664062 309 110.160156 308.597656 108.230469 308.414062 C 107.75 308.367188 107.558594 308.179688 107.128906 308.007812 C 106.992188 307.957031 106.878906 307.878906 106.789062 307.765625 C 106.4375 307.34375 105.453125 306.945312 105.308594 306.675781 C 105.25 306.570312 105.160156 306.503906 105.042969 306.472656 L 101.390625 305.53125 C 101.300781 305.503906 101.222656 305.460938 101.160156 305.394531 C 99.71875 303.828125 98.261719 303.589844 96.425781 302.941406 C 96.003906 302.789062 95.484375 302.308594 94.867188 301.5 C 94.792969 301.40625 94.699219 301.34375 94.578125 301.320312 L 93.578125 301.125 C 93.242188 301.0625 93.246094 301.015625 93.585938 300.984375 C 94.359375 300.914062 94.875 301.03125 95.140625 301.339844 C 96.097656 302.464844 97.296875 303.171875 98.726562 303.457031 C 99.605469 303.628906 100.136719 303.96875 100.886719 304.320312 C 101.042969 304.390625 101.160156 304.5 101.238281 304.648438 C 101.550781 305.222656 102.0625 305.507812 102.78125 305.511719 C 102.851562 305.511719 102.855469 305.492188 102.796875 305.449219 C 102.183594 305.027344 101.722656 304.996094 101.277344 304.273438 C 101.195312 304.140625 101.082031 304.050781 100.933594 304.003906 L 98.910156 303.367188 C 98.796875 303.328125 98.699219 303.261719 98.617188 303.171875 C 98.464844 302.996094 98.242188 302.953125 97.941406 303.050781 C 97.78125 303.097656 97.640625 303.0625 97.523438 302.945312 L 95.96875 301.359375 C 95.875 301.269531 95.765625 301.203125 95.636719 301.171875 L 92.722656 300.421875 C 92.546875 300.382812 92.433594 300.273438 92.382812 300.101562 C 92.191406 299.488281 91.800781 299.074219 91.210938 298.859375 C 90.441406 298.582031 89.386719 298.289062 88.050781 297.980469 C 87.902344 297.945312 87.808594 297.855469 87.769531 297.710938 C 87.453125 296.582031 86.675781 295.949219 85.433594 295.808594 C 84.960938 295.753906 84.496094 295.351562 84.027344 294.601562 C 83.957031 294.480469 83.859375 294.382812 83.738281 294.316406 C 83.285156 294.050781 82.847656 293.777344 82.425781 293.5 C 81.960938 293.195312 81.5625 293.054688 81.230469 293.085938 C 81.121094 293.097656 81.011719 293.082031 80.898438 293.046875 C 80.789062 293.007812 80.683594 292.949219 80.585938 292.871094 C 80.488281 292.789062 80.398438 292.691406 80.320312 292.578125 C 80.246094 292.460938 80.1875 292.335938 80.144531 292.203125 C 79.832031 291.269531 79.167969 290.796875 78.136719 290.78125 C 77.980469 290.78125 77.894531 290.699219 77.878906 290.546875 C 77.859375 290.363281 77.78125 290.257812 77.652344 290.226562 C 77.5 290.1875 77.40625 290.097656 77.367188 289.949219 C 77.09375 288.902344 76.4375 288.625 75.519531 288.238281 C 74.875 287.964844 74.679688 287.570312 74.316406 287.027344 C 74.050781 286.640625 73.765625 286.351562 73.457031 286.15625 C 73.175781 285.984375 72.882812 285.832031 72.574219 285.703125 C 72.40625 285.632812 72.289062 285.507812 72.222656 285.335938 C 71.984375 284.667969 71.59375 284.105469 71.042969 283.664062 C 70.945312 283.578125 70.824219 283.523438 70.691406 283.5 C 70.101562 283.386719 69.683594 282.972656 69.433594 282.25 C 69.195312 281.546875 68.636719 281 67.757812 280.601562 C 67.628906 280.542969 67.527344 280.453125 67.464844 280.332031 C 67.039062 279.523438 66.539062 278.429688 65.496094 278.386719 C 65.308594 278.375 65.175781 278.289062 65.097656 278.121094 L 64.546875 276.992188 C 64.484375 276.863281 64.402344 276.746094 64.296875 276.644531 L 63.222656 275.585938 C 63.132812 275.5 63.027344 275.441406 62.902344 275.414062 C 62.574219 275.34375 62.382812 275.128906 62.328125 274.761719 C 62.308594 274.621094 62.257812 274.5 62.175781 274.390625 C 62.035156 274.195312 61.949219 273.980469 61.917969 273.746094 C 61.898438 273.589844 61.828125 273.464844 61.710938 273.371094 C 61.414062 273.136719 61.183594 272.84375 61.023438 272.484375 C 60.960938 272.34375 60.871094 272.21875 60.757812 272.113281 C 60.546875 271.910156 60.292969 271.523438 59.984375 270.953125 C 59.582031 270.199219 59.496094 269.296875 58.878906 268.757812 C 58.527344 268.449219 58.128906 268.203125 57.6875 268.019531 C 57.578125 267.972656 57.511719 267.894531 57.492188 267.773438 L 56.808594 264.15625 C 56.785156 264.019531 56.71875 263.90625 56.617188 263.8125 L 55.28125 262.582031 C 55.171875 262.476562 55.105469 262.347656 55.089844 262.191406 C 55.054688 261.894531 54.945312 261.632812 54.765625 261.402344 C 54.683594 261.292969 54.640625 261.171875 54.648438 261.03125 C 54.730469 259.449219 54.242188 258.105469 53.183594 257.011719 Z M 326.574219 254.957031 C 326.511719 254.988281 326.460938 255.035156 326.421875 255.101562 C 326.394531 255.144531 326.386719 255.191406 326.390625 255.234375 C 326.394531 255.292969 326.421875 255.300781 326.464844 255.261719 C 326.789062 254.976562 327.03125 254.632812 327.195312 254.238281 C 327.234375 254.148438 327.222656 254.144531 327.164062 254.21875 L 326.648438 254.894531 C 326.628906 254.917969 326.605469 254.9375 326.574219 254.957031 Z M 108.128906 308.054688 C 108.859375 308.351562 109.621094 308.449219 110.421875 308.355469 C 110.425781 308.355469 110.429688 308.359375 110.429688 308.363281 C 110.429688 308.367188 110.429688 308.371094 110.429688 308.375 C 110.425781 308.402344 110.425781 308.417969 110.425781 308.417969 L 108.515625 308.015625 C 108.375 307.984375 108.265625 307.910156 108.183594 307.796875 C 107.871094 307.347656 107.46875 306.988281 106.980469 306.71875 C 106.902344 306.675781 106.851562 306.617188 106.824219 306.542969 C 106.789062 306.4375 106.71875 306.367188 106.617188 306.328125 C 105.648438 305.964844 104.652344 305.753906 103.621094 305.6875 C 103.207031 305.664062 103.199219 305.703125 103.609375 305.800781 C 104.410156 306 105.25 306.234375 106.128906 306.507812 C 106.613281 306.664062 107.175781 307.222656 107.425781 307.53125 C 107.617188 307.765625 107.851562 307.941406 108.128906 308.054688 Z M 121.1875 312.875 C 120.097656 312.539062 119.964844 311.453125 118.722656 311.285156 C 118.71875 311.285156 118.710938 311.285156 118.710938 311.292969 C 118.566406 311.582031 118.570312 311.585938 118.71875 311.296875 C 118.730469 311.269531 118.75 311.261719 118.777344 311.277344 C 119.445312 311.542969 119.984375 311.976562 120.398438 312.574219 C 120.476562 312.695312 120.582031 312.765625 120.722656 312.785156 C 120.890625 312.808594 121.042969 312.851562 121.1875 312.914062 C 121.191406 312.914062 121.195312 312.914062 121.199219 312.914062 C 121.199219 312.910156 121.199219 312.90625 121.203125 312.902344 C 121.207031 312.890625 121.199219 312.882812 121.1875 312.875 Z M 121.1875 312.875 " fill-opacity="1" fill-rule="nonzero"/><path fill="#000000" d="M 273.167969 68.628906 L 273.167969 106.179688 C 273.167969 106.253906 273.132812 106.292969 273.058594 106.292969 L 105.726562 106.292969 C 105.632812 106.292969 105.554688 106.261719 105.488281 106.195312 C 105.417969 106.128906 105.386719 106.046875 105.386719 105.953125 L 105.386719 68.089844 C 105.386719 67.996094 105.417969 67.914062 105.488281 67.847656 C 105.554688 67.78125 105.632812 67.75 105.726562 67.75 L 272.289062 67.75 C 272.40625 67.75 272.519531 67.773438 272.628906 67.816406 C 272.734375 67.859375 272.828125 67.921875 272.914062 68.007812 C 272.996094 68.089844 273.058594 68.183594 273.101562 68.292969 C 273.148438 68.398438 273.167969 68.511719 273.167969 68.628906 Z M 273.167969 68.628906 " fill-opacity="1" fill-rule="nonzero"/><path fill="#000000" d="M 273.167969 126.671875 L 273.167969 164.109375 C 273.167969 164.261719 273.09375 164.335938 272.945312 164.335938 L 105.726562 164.335938 C 105.632812 164.335938 105.554688 164.304688 105.488281 164.238281 C 105.417969 164.171875 105.386719 164.089844 105.386719 163.996094 L 105.386719 126.132812 C 105.386719 126.039062 105.417969 125.957031 105.488281 125.894531 C 105.554688 125.828125 105.632812 125.792969 105.726562 125.792969 L 272.289062 125.792969 C 272.40625 125.792969 272.519531 125.816406 272.628906 125.859375 C 272.734375 125.902344 272.828125 125.96875 272.914062 126.050781 C 272.996094 126.132812 273.058594 126.226562 273.101562 126.335938 C 273.148438 126.441406 273.167969 126.554688 273.167969 126.671875 Z M 273.167969 126.671875 " fill-opacity="1" fill-rule="nonzero"/><path fill="#000000" d="M 273.167969 184.714844 L 273.167969 222.269531 C 273.167969 222.34375 273.132812 222.382812 273.058594 222.382812 L 105.726562 222.382812 C 105.632812 222.382812 105.554688 222.347656 105.488281 222.28125 C 105.417969 222.214844 105.386719 222.136719 105.386719 222.042969 L 105.386719 184.179688 C 105.386719 184.082031 105.417969 184.003906 105.488281 183.9375 C 105.554688 183.871094 105.632812 183.835938 105.726562 183.835938 L 272.289062 183.835938 C 272.40625 183.835938 272.519531 183.859375 272.628906 183.90625 C 272.734375 183.949219 272.828125 184.011719 272.914062 184.09375 C 272.996094 184.179688 273.058594 184.273438 273.101562 184.378906 C 273.148438 184.488281 273.167969 184.597656 273.167969 184.714844 Z M 273.167969 184.714844 " fill-opacity="1" fill-rule="nonzero"/><path fill="#000000" d="M 326.648438 254.894531 L 327.164062 254.21875 C 327.222656 254.144531 327.234375 254.148438 327.195312 254.238281 C 327.03125 254.632812 326.789062 254.976562 326.464844 255.261719 C 326.421875 255.300781 326.394531 255.292969 326.390625 255.234375 C 326.386719 255.191406 326.394531 255.144531 326.421875 255.101562 C 326.460938 255.035156 326.511719 254.988281 326.574219 254.957031 C 326.605469 254.9375 326.628906 254.917969 326.648438 254.894531 Z M 326.648438 254.894531 " fill-opacity="1" fill-rule="nonzero"/><path fill="#000000" d="M 108.128906 308.054688 C 107.851562 307.941406 107.617188 307.765625 107.425781 307.53125 C 107.175781 307.222656 106.613281 306.664062 106.128906 306.507812 C 105.25 306.234375 104.410156 306 103.609375 305.800781 C 103.199219 305.703125 103.207031 305.664062 103.621094 305.6875 C 104.652344 305.753906 105.648438 305.964844 106.617188 306.328125 C 106.71875 306.367188 106.789062 306.4375 106.824219 306.542969 C 106.851562 306.617188 106.902344 306.675781 106.980469 306.71875 C 107.46875 306.988281 107.871094 307.347656 108.183594 307.796875 C 108.265625 307.910156 108.375 307.984375 108.515625 308.015625 L 110.425781 308.417969 C 110.425781 308.417969 110.425781 308.402344 110.429688 308.375 C 110.429688 308.371094 110.429688 308.367188 110.429688 308.363281 C 110.429688 308.359375 110.425781 308.355469 110.421875 308.355469 C 109.621094 308.449219 108.859375 308.351562 108.128906 308.054688 Z M 108.128906 308.054688 " fill-opacity="1" fill-rule="nonzero"/><path fill="#000000" d="M 118.722656 311.285156 C 119.964844 311.453125 120.097656 312.539062 121.1875 312.875 C 121.199219 312.882812 121.207031 312.890625 121.203125 312.902344 C 121.199219 312.90625 121.199219 312.910156 121.199219 312.914062 C 121.195312 312.914062 121.191406 312.914062 121.1875 312.914062 C 121.042969 312.851562 120.890625 312.808594 120.722656 312.785156 C 120.582031 312.765625 120.476562 312.695312 120.398438 312.574219 C 119.984375 311.976562 119.445312 311.542969 118.777344 311.277344 C 118.75 311.261719 118.730469 311.269531 118.71875 311.296875 C 118.570312 311.585938 118.566406 311.582031 118.710938 311.292969 C 118.710938 311.285156 118.71875 311.285156 118.722656 311.285156 Z M 118.722656 311.285156 " fill-opacity="1" fill-rule="nonzero"/></svg>