<svg xmlns="http://www.w3.org/2000/svg" xmlns:xlink="http://www.w3.org/1999/xlink" width="500" zoomAndPan="magnify" viewBox="0 0 375 374.999991" height="500" preserveAspectRatio="xMidYMid meet" version="1.0"><defs><g/><clipPath id="e3f0823ae4"><path d="M 70.929688 142.007812 L 289.035156 142.007812 L 289.035156 256.574219 L 70.929688 256.574219 Z M 70.929688 142.007812 " clip-rule="nonzero"/></clipPath><clipPath id="d65aebd5e9"><path d="M 85.875 126.910156 L 303.375 126.910156 L 303.375 242.410156 L 85.875 242.410156 Z M 85.875 126.910156 " clip-rule="nonzero"/></clipPath></defs><g clip-path="url(#e3f0823ae4)"><path fill="#df493d" d="M 70.929688 142.007812 L 289.035156 142.007812 L 289.035156 256.574219 L 70.929688 256.574219 Z M 70.929688 142.007812 " fill-opacity="1" fill-rule="nonzero"/></g><g clip-path="url(#d65aebd5e9)"><path stroke-linecap="butt" transform="matrix(0.749435, 0, 0, 0.751678, 85.875877, 126.911036)" fill="none" stroke-linejoin="miter" d="M -0.00117056 -0.001171 L 290.217613 -0.001171 L 290.217613 153.655097 L -0.00117056 153.655097 L -0.00117056 -0.001171 " stroke="#242020" stroke-width="9" stroke-opacity="1" stroke-miterlimit="4"/></g><g fill="#242020" fill-opacity="1"><g transform="translate(96.426014, 217.927617)"><g><path d="M 34.578125 1.21875 C 25.535156 1.21875 18.5 -1.851562 13.46875 -8 C 8.4375 -14.15625 5.921875 -23.222656 5.921875 -35.203125 C 5.921875 -47.171875 8.4375 -56.367188 13.46875 -62.796875 C 18.5 -69.222656 25.535156 -72.4375 34.578125 -72.4375 C 40.566406 -72.4375 45.582031 -71.070312 49.625 -68.34375 C 53.675781 -65.625 56.820312 -61.785156 59.0625 -56.828125 L 52.125 -52.640625 C 50.695312 -56.316406 48.519531 -59.257812 45.59375 -61.46875 C 42.675781 -63.675781 39.003906 -64.78125 34.578125 -64.78125 C 31.523438 -64.78125 28.789062 -64.203125 26.375 -63.046875 C 23.957031 -61.890625 21.914062 -60.238281 20.25 -58.09375 C 18.582031 -55.957031 17.304688 -53.410156 16.421875 -50.453125 C 15.535156 -47.492188 15.09375 -44.175781 15.09375 -40.5 L 15.09375 -29.890625 C 15.09375 -22.546875 16.789062 -16.796875 20.1875 -12.640625 C 23.59375 -8.492188 28.390625 -6.421875 34.578125 -6.421875 C 39.140625 -6.421875 42.945312 -7.59375 46 -9.9375 C 49.0625 -12.289062 51.304688 -15.40625 52.734375 -19.28125 L 59.578125 -15 C 57.328125 -9.96875 54.09375 -6.003906 49.875 -3.109375 C 45.664062 -0.222656 40.566406 1.21875 34.578125 1.21875 Z M 34.578125 1.21875 "/></g></g></g><g fill="#242020" fill-opacity="1"><g transform="translate(159.756775, 217.927617)"><g/></g></g><g fill="#242020" fill-opacity="1"><g transform="translate(183.829884, 217.927617)"><g/></g></g><g fill="#242020" fill-opacity="1"><g transform="translate(207.889947, 217.927617)"><g><path d="M 17.546875 -71.203125 L 17.546875 -27.140625 C 17.546875 -20.335938 18.800781 -15.179688 21.3125 -11.671875 C 23.832031 -8.171875 28.253906 -6.421875 34.578125 -6.421875 C 40.910156 -6.421875 45.332031 -8.171875 47.84375 -11.671875 C 50.363281 -15.179688 51.625 -20.335938 51.625 -27.140625 L 51.625 -71.203125 L 60.1875 -71.203125 L 60.1875 -29.171875 C 60.1875 -24.003906 59.726562 -19.515625 58.8125 -15.703125 C 57.894531 -11.898438 56.414062 -8.738281 54.375 -6.21875 C 52.332031 -3.707031 49.660156 -1.835938 46.359375 -0.609375 C 43.066406 0.609375 39.039062 1.21875 34.28125 1.21875 C 29.519531 1.21875 25.519531 0.609375 22.28125 -0.609375 C 19.050781 -1.835938 16.453125 -3.707031 14.484375 -6.21875 C 12.515625 -8.738281 11.101562 -11.898438 10.25 -15.703125 C 9.40625 -19.515625 8.984375 -24.003906 8.984375 -29.171875 L 8.984375 -71.203125 Z M 17.546875 -71.203125 "/></g></g></g><g fill="#242020" fill-opacity="1"><g transform="translate(158.37824, 218.081195)"><g><path d="M 8.734375 0.453125 C 7.671875 0.453125 6.785156 0.0820312 6.078125 -0.65625 C 5.378906 -1.40625 5.03125 -2.289062 5.03125 -3.3125 C 5.03125 -4.332031 5.378906 -5.191406 6.078125 -5.890625 C 6.785156 -6.597656 7.671875 -6.953125 8.734375 -6.953125 C 9.796875 -6.953125 10.675781 -6.597656 11.375 -5.890625 C 12.082031 -5.191406 12.4375 -4.332031 12.4375 -3.3125 C 12.4375 -2.289062 12.070312 -1.40625 11.34375 -0.65625 C 10.625 0.0820312 9.753906 0.453125 8.734375 0.453125 Z M 8.734375 0.453125 "/></g></g></g><g fill="#242020" fill-opacity="1"><g transform="translate(268.381451, 218.081195)"><g><path d="M 8.734375 0.453125 C 7.671875 0.453125 6.785156 0.0820312 6.078125 -0.65625 C 5.378906 -1.40625 5.03125 -2.289062 5.03125 -3.3125 C 5.03125 -4.332031 5.378906 -5.191406 6.078125 -5.890625 C 6.785156 -6.597656 7.671875 -6.953125 8.734375 -6.953125 C 9.796875 -6.953125 10.675781 -6.597656 11.375 -5.890625 C 12.082031 -5.191406 12.4375 -4.332031 12.4375 -3.3125 C 12.4375 -2.289062 12.070312 -1.40625 11.34375 -0.65625 C 10.625 0.0820312 9.753906 0.453125 8.734375 0.453125 Z M 8.734375 0.453125 "/></g></g></g></svg>